<svg width="603" height="224" viewBox="0 0 603 224" fill="none" xmlns="http://www.w3.org/2000/svg">
<rect width="601.734" height="224" transform="translate(0.632812)" fill="#4B0082"/>
<path d="M97.3421 90.314C97.5076 90.3138 97.6731 90.3135 97.8386 90.3132C98.1959 90.3127 98.5532 90.3125 98.9105 90.3128C99.4419 90.3131 99.9732 90.3127 100.505 90.3122C101.509 90.3112 102.514 90.311 103.518 90.3112C104.294 90.3113 105.07 90.3112 105.846 90.3109C105.958 90.3109 106.07 90.3108 106.181 90.3108C106.35 90.3107 106.518 90.3107 106.687 90.3106C108.251 90.3101 109.816 90.3098 111.381 90.31C111.469 90.3101 111.469 90.3101 111.559 90.3101C111.857 90.3101 112.156 90.3102 112.454 90.3102C112.514 90.3103 112.573 90.3103 112.634 90.3103C112.754 90.3103 112.874 90.3103 112.993 90.3104C114.858 90.3107 116.723 90.3102 118.588 90.3089C120.686 90.3076 122.784 90.3068 124.883 90.3071C125.107 90.3071 125.331 90.3072 125.555 90.3072C125.61 90.3072 125.665 90.3072 125.722 90.3072C126.552 90.3073 127.382 90.3068 128.212 90.3061C129.157 90.3053 130.101 90.3052 131.046 90.306C131.574 90.3065 132.101 90.3064 132.629 90.3055C133.024 90.3048 133.42 90.3053 133.815 90.3061C133.974 90.3063 134.133 90.3061 134.292 90.3056C135.573 90.3016 136.833 90.3993 138.084 90.6872C138.147 90.7015 138.21 90.7157 138.275 90.7305C141.276 91.4251 144.059 92.8794 146.307 94.9868C146.454 95.1236 146.604 95.2541 146.758 95.3831C147.762 96.2574 148.598 97.3794 149.302 98.5012C149.328 98.5421 149.354 98.5831 149.381 98.6253C149.777 99.2557 150.123 99.9045 150.442 100.577C150.464 100.624 150.487 100.671 150.51 100.719C152.635 105.202 152.478 110.134 150.978 114.774C150.949 114.866 150.949 114.866 150.918 114.959C150.632 115.835 150.285 116.68 149.906 117.519C149.878 117.581 149.85 117.642 149.822 117.705C148.839 119.869 147.55 121.905 145.983 123.695C145.906 123.786 145.831 123.879 145.757 123.972C145.375 124.451 144.964 124.886 144.529 125.317C144.416 125.429 144.303 125.542 144.191 125.656C143.747 126.099 143.29 126.504 142.798 126.894C142.724 126.957 142.651 127.02 142.578 127.084C141.988 127.598 141.361 128.054 140.72 128.501C140.677 128.531 140.634 128.561 140.59 128.592C139.858 129.103 139.088 129.545 138.306 129.975C138.244 130.009 138.182 130.043 138.118 130.078C135.563 131.471 132.777 132.385 129.912 132.871C129.863 132.879 129.814 132.888 129.763 132.896C128.385 133.129 127.025 133.209 125.628 133.206C125.463 133.207 125.297 133.207 125.132 133.207C124.774 133.208 124.417 133.208 124.06 133.208C123.528 133.207 122.997 133.208 122.466 133.208C121.461 133.209 120.457 133.209 119.452 133.209C118.676 133.209 117.9 133.209 117.124 133.209C117.012 133.209 116.9 133.21 116.789 133.21C116.62 133.21 116.452 133.21 116.283 133.21C114.719 133.21 113.154 133.211 111.59 133.21C111.501 133.21 111.501 133.21 111.411 133.21C111.113 133.21 110.814 133.21 110.516 133.21C110.457 133.21 110.397 133.21 110.336 133.21C110.216 133.21 110.097 133.21 109.977 133.21C108.112 133.21 106.247 133.21 104.383 133.211C102.284 133.213 100.186 133.214 98.0876 133.213C97.8636 133.213 97.6396 133.213 97.4156 133.213C97.3329 133.213 97.3329 133.213 97.2485 133.213C96.4184 133.213 95.5883 133.214 94.7582 133.214C93.8135 133.215 92.8689 133.215 91.9242 133.214C91.3966 133.214 90.8689 133.214 90.3413 133.215C89.9458 133.216 89.5503 133.215 89.1549 133.214C88.996 133.214 88.8372 133.214 88.6783 133.215C87.3977 133.219 86.1376 133.121 84.8866 132.833C84.7918 132.812 84.7918 132.812 84.6951 132.79C81.6945 132.095 78.911 130.641 76.6631 128.534C76.5157 128.397 76.3659 128.266 76.2118 128.137C75.2084 127.263 74.3724 126.141 73.668 125.019C73.6421 124.978 73.6162 124.937 73.5895 124.895C73.1934 124.265 72.8467 123.616 72.5281 122.943C72.5057 122.896 72.4833 122.85 72.4603 122.801C70.3352 118.319 70.4922 113.386 71.9917 108.747C72.0115 108.685 72.0313 108.624 72.0517 108.561C72.338 107.686 72.6851 106.84 73.0645 106.001C73.0922 105.94 73.1198 105.878 73.1483 105.815C74.1313 103.651 75.4198 101.615 76.9872 99.825C77.0642 99.7342 77.1391 99.6417 77.2132 99.5486C77.5949 99.0698 78.0064 98.6343 78.4409 98.2036C78.5543 98.0911 78.6668 97.978 78.7794 97.8647C79.223 97.4211 79.6801 97.0164 80.172 96.6261C80.2459 96.5636 80.3194 96.5005 80.3923 96.4368C80.9825 95.9227 81.6089 95.4667 82.2506 95.019C82.2933 94.989 82.336 94.9591 82.38 94.9282C83.1121 94.4173 83.8822 93.9752 84.6645 93.5458C84.7264 93.5117 84.7883 93.4777 84.8522 93.4426C87.4067 92.049 90.1933 91.1358 93.0585 90.6495C93.1076 90.6411 93.1567 90.6327 93.2072 90.6241C94.5852 90.3911 95.9455 90.3115 97.3421 90.314Z" fill="#F3ECF8"/>
<path d="M117.452 95.6886C119.678 95.6856 121.904 95.6832 124.13 95.6818C124.394 95.6816 124.657 95.6815 124.92 95.6813C124.973 95.6813 125.025 95.6812 125.079 95.6812C125.926 95.6806 126.773 95.6795 127.619 95.6783C128.489 95.6771 129.359 95.6763 130.229 95.676C130.765 95.6759 131.301 95.6753 131.837 95.6742C132.249 95.6734 132.662 95.6733 133.074 95.6735C133.242 95.6735 133.41 95.6732 133.579 95.6727C137.273 95.6619 140.545 96.8227 143.2 99.4387C145.635 101.896 146.716 105.133 146.708 108.529C146.692 110.797 145.996 113.046 145.078 115.108C145.05 115.17 145.023 115.232 144.995 115.295C144.18 117.11 143.11 118.927 141.736 120.378C141.614 120.508 141.498 120.64 141.382 120.775C141.081 121.12 140.758 121.443 140.434 121.767C140.375 121.827 140.317 121.886 140.256 121.948C139.851 122.354 139.426 122.722 138.976 123.077C138.905 123.135 138.834 123.192 138.763 123.25C137.78 124.019 136.73 124.708 135.623 125.287C135.559 125.321 135.559 125.321 135.493 125.355C135.182 125.517 134.867 125.672 134.551 125.823C134.506 125.844 134.462 125.865 134.416 125.887C132.826 126.644 131.176 127.145 129.455 127.497C129.397 127.509 129.339 127.521 129.279 127.534C127.258 127.951 125.145 127.85 123.093 127.845C122.669 127.844 122.246 127.844 121.823 127.844C121.114 127.844 120.406 127.843 119.697 127.842C118.968 127.841 118.24 127.84 117.511 127.839C117.443 127.839 117.443 127.839 117.374 127.839C117.147 127.839 116.921 127.839 116.694 127.838C114.824 127.837 112.953 127.835 111.083 127.832C111.119 127.466 111.167 127.107 111.24 126.746C111.249 126.701 111.258 126.655 111.268 126.608C111.298 126.455 111.33 126.302 111.361 126.149C111.384 126.035 111.407 125.92 111.429 125.806C111.48 125.552 111.532 125.298 111.583 125.045C111.669 124.616 111.756 124.188 111.842 123.759C111.941 123.264 112.041 122.769 112.14 122.274C112.447 120.749 112.753 119.223 113.059 117.697C113.078 117.603 113.078 117.603 113.097 117.507C113.227 116.856 113.358 116.204 113.488 115.552C113.664 114.676 113.839 113.8 114.015 112.923C114.028 112.856 114.042 112.788 114.056 112.719C114.111 112.445 114.166 112.17 114.221 111.896C114.318 111.412 114.415 110.928 114.512 110.443C114.81 108.956 115.108 107.468 115.406 105.98C115.643 104.798 115.88 103.615 116.117 102.432C116.262 101.708 116.407 100.985 116.552 100.261C116.65 99.77 116.748 99.2788 116.847 98.7876C116.903 98.5049 116.96 98.2222 117.017 97.9394C117.069 97.681 117.12 97.4225 117.172 97.164C117.191 97.0705 117.209 96.9771 117.228 96.8836C117.254 96.7567 117.279 96.6298 117.304 96.5029C117.319 96.4324 117.333 96.362 117.347 96.2894C117.386 96.0896 117.42 95.8894 117.452 95.6886Z" fill="#E9CCFF"/>
<path d="M99.8769 95.6752C100.3 95.6761 100.724 95.6761 101.147 95.6763C101.856 95.6767 102.564 95.6775 103.273 95.6787C104.001 95.6799 104.73 95.6809 105.459 95.6814C105.527 95.6815 105.527 95.6815 105.596 95.6816C105.822 95.6817 106.049 95.6819 106.276 95.6821C108.146 95.6834 110.017 95.6858 111.887 95.6888C111.877 95.7847 111.867 95.8805 111.856 95.9764C111.847 96.0565 111.847 96.0565 111.839 96.1382C111.815 96.3315 111.781 96.521 111.743 96.7118C111.728 96.7848 111.714 96.8578 111.698 96.933C111.683 97.0072 111.668 97.0814 111.653 97.1578C111.637 97.2338 111.622 97.3099 111.607 97.3882C111.494 97.948 111.494 97.948 111.418 98.0995C111.339 98.0997 111.26 98.0999 111.178 98.1C109.297 98.1039 107.416 98.1087 105.534 98.1149C105.302 98.1156 105.07 98.1164 104.838 98.1171C104.792 98.1173 104.746 98.1174 104.698 98.1176C103.952 98.1199 103.206 98.1216 102.461 98.123C101.694 98.1245 100.927 98.1267 100.161 98.1296C99.7306 98.1312 99.3005 98.1324 98.8705 98.1329C98.4649 98.1333 98.0593 98.1346 97.6537 98.1367C97.5056 98.1372 97.3575 98.1375 97.2095 98.1374C96.0871 98.1368 95.0237 98.2307 93.9426 98.5515C93.8833 98.569 93.8239 98.5864 93.7628 98.6044C93.211 98.7717 92.6933 98.9884 92.1741 99.2379C92.0699 99.2877 92.0699 99.2877 91.9635 99.3385C91.5475 99.5374 91.1321 99.7378 90.7173 99.9392C90.3701 100.108 90.0219 100.274 89.6729 100.439C88.9589 100.777 88.2498 101.125 87.5422 101.476C87.4302 101.532 87.3181 101.587 87.2059 101.642C86.5944 101.944 86.0011 102.255 85.4283 102.625C85.2678 102.72 85.2678 102.72 85.1337 102.72C85.1337 102.764 85.1337 102.808 85.1337 102.854C85.1977 102.83 85.2617 102.807 85.3276 102.783C87.776 101.883 90.2305 101.019 92.8551 100.838C92.9364 100.832 93.0176 100.826 93.1013 100.821C93.9435 100.766 94.7833 100.76 95.627 100.763C95.795 100.763 95.9631 100.763 96.1312 100.763C96.4884 100.763 96.8457 100.763 97.203 100.764C97.7195 100.765 98.2361 100.765 98.7526 100.766C99.5912 100.766 100.43 100.767 101.269 100.768C102.082 100.769 102.895 100.77 103.708 100.771C103.784 100.771 103.784 100.771 103.861 100.771C104.114 100.771 104.366 100.771 104.619 100.771C106.707 100.773 108.794 100.775 110.882 100.778C110.787 101.433 110.666 102.081 110.536 102.729C110.514 102.836 110.493 102.943 110.472 103.05C110.413 103.341 110.355 103.632 110.296 103.923C110.233 104.238 110.17 104.553 110.107 104.868C109.998 105.413 109.889 105.958 109.779 106.503C109.621 107.291 109.463 108.08 109.305 108.868C109.048 110.148 108.792 111.428 108.535 112.707C108.286 113.949 108.037 115.191 107.788 116.433C107.773 116.509 107.757 116.586 107.741 116.665C107.574 117.5 107.406 118.336 107.239 119.171C107.224 119.245 107.21 119.318 107.194 119.394C107.136 119.687 107.077 119.981 107.018 120.274C106.846 121.133 106.673 121.992 106.501 122.851C106.393 123.39 106.285 123.928 106.177 124.467C106.115 124.778 106.053 125.088 105.99 125.399C105.933 125.683 105.876 125.968 105.819 126.252C105.798 126.355 105.778 126.458 105.757 126.561C105.729 126.701 105.701 126.841 105.673 126.98C105.657 127.058 105.642 127.136 105.626 127.216C105.586 127.421 105.551 127.626 105.517 127.832C103.26 127.84 101.003 127.845 98.7455 127.849C98.478 127.849 98.2105 127.85 97.943 127.85C97.8631 127.85 97.8631 127.85 97.7816 127.851C96.9235 127.852 96.0654 127.855 95.2073 127.858C94.3244 127.861 93.4416 127.863 92.5587 127.863C92.0155 127.864 91.4723 127.865 90.9291 127.868C90.5548 127.87 90.1805 127.87 89.8062 127.87C89.5914 127.87 89.3766 127.87 89.1618 127.872C87.0485 127.887 85.0894 127.478 83.1892 126.56C83.1457 126.539 83.1022 126.518 83.0573 126.496C80.7603 125.38 78.8708 123.452 77.691 121.202C77.6669 121.157 77.6428 121.111 77.6179 121.064C76.8379 119.567 76.2829 117.865 76.2669 116.167C76.2663 116.109 76.2656 116.052 76.2649 115.992C76.2442 113.696 76.2442 113.696 76.5087 112.664C76.5547 112.483 76.5949 112.301 76.6349 112.118C77.2101 109.573 78.3147 107.055 79.8366 104.93C79.8731 104.879 79.9097 104.828 79.9473 104.775C80.352 104.21 80.7553 103.648 81.234 103.142C81.3558 103.012 81.4717 102.881 81.5876 102.746C81.889 102.401 82.2114 102.077 82.5355 101.753C82.5943 101.694 82.6532 101.634 82.7138 101.573C83.1193 101.167 83.5436 100.799 83.9938 100.443C84.0649 100.386 84.136 100.328 84.207 100.271C85.9783 98.884 87.9782 97.731 90.0955 96.9611C90.1445 96.9431 90.1934 96.9251 90.2438 96.9066C93.4094 95.7572 96.5519 95.6674 99.8769 95.6752Z" fill="#E9CCFF"/>
<path d="M80.3735 93.8138C80.1883 93.9575 80.0002 94.0804 79.7965 94.1965C78.9975 94.657 78.2309 95.1393 77.4903 95.6888C77.4518 95.7171 77.4132 95.7455 77.3735 95.7747C75.7309 96.9872 74.1874 98.4325 72.9308 100.041C72.8555 100.136 72.7801 100.231 72.7048 100.326C72.299 100.84 71.9078 101.347 71.5728 101.91C71.4199 102.093 71.3569 102.091 71.1204 102.117C70.9059 102.113 70.693 102.095 70.4793 102.077C70.4141 102.072 70.3489 102.066 70.2817 102.061C70.0617 102.043 69.8418 102.025 69.622 102.007C69.4633 101.994 69.3045 101.981 69.1458 101.968C68.8 101.94 68.4543 101.912 68.1086 101.884C67.5945 101.841 67.0803 101.799 66.5662 101.758C65.5947 101.679 64.6232 101.599 63.6518 101.519C62.902 101.458 62.1521 101.397 61.4023 101.335C61.2946 101.326 61.187 101.318 61.0793 101.309C60.9171 101.296 60.7549 101.282 60.5927 101.269C59.0845 101.146 57.5763 101.023 56.0681 100.899C56.0112 100.894 55.9544 100.889 55.8958 100.885C55.4339 100.847 54.972 100.809 54.5101 100.771C52.7073 100.623 50.9044 100.475 49.1015 100.329C47.0773 100.164 45.0531 99.9982 43.0289 99.8321C42.8133 99.8144 42.5977 99.7968 42.3821 99.7791C42.3025 99.7726 42.3025 99.7726 42.2213 99.7659C41.4182 99.7 40.6151 99.6345 39.812 99.5691C38.8994 99.4949 37.9869 99.4202 37.0744 99.3448C36.5631 99.3027 36.0519 99.2608 35.5406 99.2195C35.1598 99.1887 34.7791 99.1572 34.3985 99.1255C34.2437 99.1127 34.0889 99.1001 33.9341 99.0877C33.7251 99.071 33.5161 99.0536 33.3072 99.0359C33.2458 99.0312 33.1845 99.0265 33.1212 99.0216C32.9803 99.0092 32.8399 98.9904 32.6999 98.9701C32.6777 98.9259 32.6556 98.8817 32.6328 98.8361C35.681 98.5112 38.7291 98.1863 41.7773 97.8614C41.8233 97.8565 41.8693 97.8516 41.9167 97.8466C42.9195 97.7397 43.9222 97.6328 44.925 97.5259C45.4176 97.4734 45.9102 97.4209 46.4029 97.3684C46.4519 97.3632 46.5008 97.358 46.5513 97.3526C47.9146 97.2073 49.2779 97.062 50.6412 96.9167C50.9736 96.8812 51.3059 96.8458 51.6382 96.8104C51.7802 96.7953 51.9223 96.7801 52.0644 96.765C52.159 96.7549 52.2536 96.7448 52.3482 96.7347C52.8675 96.6794 53.3869 96.624 53.9062 96.5686C54.4715 96.5084 55.0369 96.4481 55.6022 96.3879C55.6487 96.3829 55.6952 96.378 55.7431 96.3728C57.0515 96.2334 58.3598 96.094 59.6682 95.9546C60.4974 95.8663 61.3266 95.778 62.1558 95.6896C62.2923 95.6751 62.4287 95.6606 62.5651 95.646C64.9994 95.3867 67.4336 95.1268 69.8678 94.8661C70.428 94.8061 70.9882 94.7461 71.5484 94.6862C71.6254 94.678 71.7023 94.6697 71.7816 94.6613C72.1619 94.6206 72.5421 94.58 72.9223 94.5393C73.7177 94.4543 74.5131 94.3691 75.3084 94.2836C75.8382 94.2267 76.3679 94.17 76.8977 94.1134C77.1989 94.0813 77.5001 94.0491 77.8012 94.0165C78.0745 93.987 78.3479 93.9578 78.6212 93.9288C78.7194 93.9183 78.8175 93.9077 78.9156 93.8971C79.4041 93.8439 79.882 93.8011 80.3735 93.8138Z" fill="#FAD692"/>
<path d="M69.2426 107.876C69.1982 108.124 69.1322 108.355 69.0512 108.593C68.4251 110.463 68.001 112.331 67.9016 114.305C67.3654 114.266 66.8421 114.19 66.3131 114.095C66.2304 114.081 66.1476 114.066 66.0624 114.051C65.8345 114.011 65.6067 113.97 65.3788 113.93C65.1317 113.886 64.8845 113.842 64.6373 113.799C64.2084 113.723 63.7796 113.647 63.3507 113.571C62.7288 113.461 62.1067 113.35 61.4847 113.241C60.5256 113.071 59.5666 112.901 58.6076 112.731C56.9979 112.446 55.3882 112.162 53.7783 111.878C53.6499 111.855 53.5215 111.832 53.393 111.81C52.8879 111.721 52.3828 111.631 51.8777 111.542C50.6234 111.321 49.3692 111.099 48.115 110.878C47.9543 110.849 47.7936 110.821 47.6329 110.793C47.0581 110.691 46.4834 110.59 45.9087 110.488C45.9087 110.444 45.9087 110.4 45.9087 110.354C48.7941 110.038 51.6796 109.722 54.5651 109.407C54.9057 109.37 55.2464 109.333 55.5871 109.295C55.6888 109.284 55.6888 109.284 55.7926 109.273C56.8907 109.153 57.9888 109.033 59.0869 108.913C60.2136 108.789 61.3404 108.666 62.4672 108.543C63.1624 108.467 63.8577 108.391 64.5529 108.315C65.0297 108.262 65.5065 108.21 65.9833 108.158C66.2584 108.128 66.5334 108.098 66.8085 108.068C67.0605 108.04 67.3125 108.013 67.5645 107.986C67.6985 107.971 67.8324 107.956 67.9664 107.941C68.3948 107.895 68.8118 107.866 69.2426 107.876Z" fill="#FAD692"/>
<path d="M138.172 120.667C137.656 121.038 137.098 121.322 136.533 121.608C136.434 121.659 136.336 121.709 136.237 121.76C135.943 121.909 135.649 122.058 135.356 122.207C135.313 122.228 135.271 122.249 135.228 122.271C134.248 122.767 133.264 123.252 132.27 123.719C132.057 123.82 131.844 123.922 131.631 124.024C130.027 124.786 128.369 125.368 126.574 125.362C126.477 125.362 126.477 125.362 126.378 125.362C126.163 125.362 125.948 125.362 125.734 125.362C125.579 125.362 125.424 125.362 125.27 125.362C124.851 125.362 124.432 125.361 124.013 125.361C123.575 125.36 123.137 125.36 122.698 125.36C121.963 125.36 121.228 125.36 120.493 125.359C119.736 125.359 118.98 125.358 118.223 125.358C118.153 125.358 118.153 125.358 118.081 125.358C117.847 125.358 117.612 125.358 117.378 125.357C115.436 125.357 113.494 125.356 111.552 125.354C111.574 125.214 111.595 125.074 111.616 124.934C111.628 124.857 111.64 124.779 111.653 124.698C111.687 124.477 111.727 124.257 111.77 124.037C111.785 123.965 111.799 123.893 111.814 123.818C111.829 123.747 111.843 123.675 111.858 123.6C111.873 123.526 111.888 123.451 111.903 123.374C111.917 123.303 111.932 123.231 111.946 123.158C111.959 123.094 111.972 123.03 111.985 122.965C112.022 122.809 112.022 122.809 112.089 122.676C112.125 122.675 112.162 122.675 112.2 122.675C114.385 122.671 116.57 122.666 118.755 122.66C119.018 122.659 119.281 122.659 119.545 122.658C119.623 122.658 119.623 122.658 119.704 122.657C120.548 122.655 121.393 122.653 122.238 122.652C123.107 122.651 123.976 122.648 124.845 122.645C125.38 122.644 125.914 122.643 126.449 122.642C126.862 122.642 127.274 122.64 127.687 122.638C127.854 122.638 128.021 122.638 128.189 122.638C129.766 122.638 131.342 122.536 132.883 122.186C132.977 122.165 133.07 122.145 133.164 122.124C133.818 121.979 134.458 121.804 135.091 121.582C135.297 121.511 135.504 121.445 135.712 121.378C136.213 121.21 136.709 121.029 137.205 120.846C137.266 120.824 137.326 120.801 137.389 120.779C137.443 120.759 137.497 120.739 137.552 120.718C137.933 120.587 137.933 120.587 138.172 120.667Z" fill="#F3ECF8"/>
<path d="M68.5054 119.796C68.5361 119.878 68.5667 119.961 68.5983 120.046C69.4605 122.42 69.4605 122.42 70.5028 124.718C70.584 124.885 70.584 124.885 70.584 125.019C70.2549 124.978 69.9463 124.913 69.6259 124.825C69.5789 124.812 69.5319 124.799 69.4835 124.786C69.3271 124.742 69.1707 124.699 69.0143 124.655C68.9015 124.624 68.7886 124.593 68.6757 124.562C68.3688 124.477 68.0619 124.392 67.7551 124.307C67.431 124.217 67.1068 124.127 66.7825 124.038C66.233 123.886 65.6835 123.733 65.134 123.581C64.2819 123.345 63.4295 123.11 62.5771 122.874C62.2966 122.797 62.0161 122.72 61.7356 122.642C61.6671 122.623 61.5985 122.604 61.5279 122.585C59.5397 122.036 57.5518 121.486 55.5645 120.934C55.5645 120.89 55.5645 120.846 55.5645 120.8C57.123 120.669 58.6816 120.538 60.2402 120.408C60.964 120.347 61.6877 120.286 62.4114 120.225C63.0425 120.172 63.6736 120.119 64.3047 120.066C64.6386 120.038 64.9725 120.01 65.3064 119.982C65.6212 119.955 65.9361 119.929 66.251 119.903C66.366 119.893 66.481 119.884 66.596 119.874C67.2346 119.819 67.8639 119.782 68.5054 119.796Z" fill="#FAD692"/>
<path fill-rule="evenodd" clip-rule="evenodd" d="M39.2034 47.7833C42.4902 47.7833 45.6612 45.8354 47.3936 43.0483L122.603 43.0483L123.726 36.735L48.5159 36.735C47.7746 33.9478 45.2961 32 42.0093 32C37.5825 32 33.3658 35.5332 32.591 39.8916C31.8161 44.2501 34.7766 47.7833 39.2034 47.7833ZM40.0452 43.0483C41.8159 43.0483 43.5026 41.635 43.8125 39.8916C44.1224 38.1483 42.9382 36.735 41.1675 36.735C39.3968 36.735 37.7101 38.1483 37.4002 39.8916C37.0903 41.635 38.2745 43.0483 40.0452 43.0483Z" fill="#F3ECF8"/>
<path fill-rule="evenodd" clip-rule="evenodd" d="M195.904 47.7833C192.464 47.7833 189.909 45.6499 189.305 42.6537H135.097L127.379 86.0675H120.967L129.807 36.3404H190.778C192.556 33.7657 195.58 32 198.71 32C203.136 32 206.097 35.5332 205.322 39.8916C204.547 44.2501 200.331 47.7833 195.904 47.7833ZM196.746 43.0483C194.975 43.0483 193.791 41.635 194.101 39.8916C194.41 38.1483 196.097 36.735 197.868 36.735C199.639 36.735 200.823 38.1483 200.513 39.8916C200.203 41.635 198.516 43.0483 196.746 43.0483Z" fill="#F3ECF8"/>
<path fill-rule="evenodd" clip-rule="evenodd" d="M113.954 86.0675L120.41 49.7561H60.7916C60.1871 46.7599 57.6326 44.6265 54.1928 44.6265C49.7661 44.6265 45.5493 48.1597 44.7745 52.5181C43.9997 56.8766 46.9601 60.4098 51.3869 60.4098C54.5163 60.4098 57.5407 58.6441 59.3184 56.0694H112.875L107.542 86.0675H113.954ZM55.996 52.5181C55.6861 54.2615 53.9994 55.6748 52.2287 55.6748C50.458 55.6748 49.2738 54.2615 49.5837 52.5181C49.8937 50.7748 51.5803 49.3615 53.351 49.3615C55.1218 49.3615 56.3059 50.7748 55.996 52.5181Z" fill="#F3ECF8"/>
<path fill-rule="evenodd" clip-rule="evenodd" d="M98.2859 138.133H104.698L100.105 163.969C102.834 165.14 104.402 167.975 103.814 171.287C103.039 175.646 98.8221 179.179 94.3953 179.179C89.9686 179.179 87.0081 175.646 87.7829 171.287C88.3445 168.128 90.7145 165.402 93.6621 164.142L98.2859 138.133ZM95.2371 174.444C97.0078 174.444 98.6945 173.031 99.0044 171.287C99.3144 169.544 98.1302 168.13 96.3595 168.13C94.5888 168.13 92.9021 169.544 92.5921 171.287C92.2822 173.031 93.4664 174.444 95.2371 174.444Z" fill="#F3ECF8"/>
<path fill-rule="evenodd" clip-rule="evenodd" d="M100.929 86.0675L104.999 63.1719H71.4693C70.728 60.3847 68.2495 58.4369 64.9627 58.4369C60.5359 58.4369 56.3192 61.9701 55.5444 66.3286C54.7695 70.687 57.73 74.2202 62.1568 74.2202C65.4436 74.2202 68.6146 72.2724 70.347 69.4852H97.4647L94.5167 86.0675H100.929ZM66.7659 66.3286C66.4559 68.0719 64.7693 69.4852 62.9986 69.4852C61.2278 69.4852 60.0437 68.0719 60.3536 66.3286C60.6635 64.5852 62.3502 63.1719 64.1209 63.1719C65.8916 63.1719 67.0758 64.5852 66.7659 66.3286Z" fill="#F3ECF8"/>
<path fill-rule="evenodd" clip-rule="evenodd" d="M85.2607 138.133H91.673L89.1695 152.215C91.784 153.432 93.268 156.214 92.6927 159.45C91.9179 163.808 87.7011 167.341 83.2744 167.341C78.8476 167.341 75.8871 163.808 76.662 159.45C77.2372 156.214 79.7099 153.433 82.7572 152.215L85.2607 138.133ZM84.1161 162.606C85.8868 162.606 87.5735 161.193 87.8835 159.45C88.1934 157.706 87.0092 156.293 85.2385 156.293C83.4678 156.293 81.7811 157.706 81.4712 159.45C81.1612 161.193 82.3454 162.606 84.1161 162.606Z" fill="#F3ECF8"/>
<path fill-rule="evenodd" clip-rule="evenodd" d="M111.711 138.133H118.123L111.201 177.073C113.815 178.291 115.299 181.072 114.724 184.308C113.949 188.667 109.732 192.2 105.306 192.2C100.879 192.2 97.9183 188.667 98.6931 184.308C99.2684 181.072 101.741 178.291 104.788 177.074L111.711 138.133ZM103.502 184.308C103.192 186.052 104.377 187.465 106.147 187.465C107.918 187.465 109.605 186.052 109.915 184.308C110.225 182.565 109.04 181.152 107.27 181.152C105.499 181.152 103.812 182.565 103.502 184.308Z" fill="#F3ECF8"/>
<path fill-rule="evenodd" clip-rule="evenodd" d="M173.056 56.0694C173.797 58.8566 176.275 60.8044 179.562 60.8044C183.989 60.8044 188.206 57.2712 188.981 52.9128C189.755 48.5543 186.795 45.0211 182.368 45.0211C179.081 45.0211 175.91 46.9689 174.178 49.7561L139.446 49.7561L138.323 56.0694L173.056 56.0694ZM177.759 52.9128C177.449 54.6561 178.633 56.0694 180.404 56.0694C182.175 56.0694 183.861 54.6561 184.171 52.9128C184.481 51.1694 183.297 49.7561 181.526 49.7561C179.756 49.7561 178.069 51.1694 177.759 52.9128Z" fill="#F3ECF8"/>
<path fill-rule="evenodd" clip-rule="evenodd" d="M163.551 74.2202C160.265 74.2202 157.786 72.2724 157.045 69.4852L135.938 69.4852L137.061 63.1719L158.167 63.1719C159.899 60.3848 163.07 58.4369 166.357 58.4369C170.784 58.4369 173.745 61.9701 172.97 66.3286C172.195 70.687 167.978 74.2202 163.551 74.2202ZM164.393 69.4852C162.622 69.4852 161.438 68.0719 161.748 66.3286C162.058 64.5852 163.745 63.1719 165.515 63.1719C167.286 63.1719 168.47 64.5852 168.16 66.3286C167.851 68.0719 166.164 69.4852 164.393 69.4852Z" fill="#F3ECF8"/>
<path d="M226.185 87.2841V76.6818H281.889V87.2841H260.31V146.5H247.764V87.2841H226.185ZM292.083 146.5V94.1364H304.424V146.5H292.083ZM298.287 86.7045C296.333 86.7045 294.651 86.0568 293.242 84.7614C291.833 83.4432 291.128 81.8636 291.128 80.0227C291.128 78.1591 291.833 76.5795 293.242 75.2841C294.651 73.9659 296.333 73.3068 298.287 73.3068C300.264 73.3068 301.946 73.9659 303.333 75.2841C304.742 76.5795 305.446 78.1591 305.446 80.0227C305.446 81.8636 304.742 83.4432 303.333 84.7614C301.946 86.0568 300.264 86.7045 298.287 86.7045ZM332.182 147.557C328.864 147.557 325.875 146.966 323.216 145.784C320.58 144.58 318.489 142.807 316.943 140.466C315.421 138.125 314.659 135.239 314.659 131.807C314.659 128.852 315.205 126.409 316.296 124.477C317.387 122.545 318.875 121 320.762 119.841C322.648 118.682 324.773 117.807 327.137 117.216C329.523 116.602 331.989 116.159 334.534 115.886C337.602 115.568 340.091 115.284 342 115.034C343.909 114.761 345.296 114.352 346.159 113.807C347.046 113.239 347.489 112.364 347.489 111.182V110.977C347.489 108.409 346.727 106.42 345.205 105.011C343.682 103.602 341.489 102.898 338.625 102.898C335.602 102.898 333.205 103.557 331.432 104.875C329.682 106.193 328.5 107.75 327.887 109.545L316.364 107.909C317.273 104.727 318.773 102.068 320.864 99.9318C322.955 97.7727 325.512 96.1591 328.534 95.0909C331.557 94 334.898 93.4545 338.557 93.4545C341.08 93.4545 343.591 93.75 346.091 94.3409C348.591 94.9318 350.875 95.9091 352.943 97.2727C355.012 98.6136 356.671 100.443 357.921 102.761C359.193 105.08 359.83 107.977 359.83 111.455V146.5H347.966V139.307H347.557C346.807 140.761 345.75 142.125 344.387 143.398C343.046 144.648 341.352 145.659 339.307 146.432C337.284 147.182 334.909 147.557 332.182 147.557ZM335.387 138.489C337.864 138.489 340.012 138 341.83 137.023C343.648 136.023 345.046 134.705 346.023 133.068C347.023 131.432 347.523 129.648 347.523 127.716V121.545C347.137 121.864 346.477 122.159 345.546 122.432C344.637 122.705 343.614 122.943 342.477 123.148C341.341 123.352 340.216 123.534 339.102 123.693C337.989 123.852 337.023 123.989 336.205 124.102C334.364 124.352 332.716 124.761 331.262 125.33C329.807 125.898 328.659 126.693 327.818 127.716C326.977 128.716 326.557 130.011 326.557 131.602C326.557 133.875 327.387 135.591 329.046 136.75C330.705 137.909 332.818 138.489 335.387 138.489ZM372.239 146.5V94.1364H384.034V103.034H384.648C385.739 100.034 387.546 97.6932 390.068 96.0114C392.591 94.3068 395.602 93.4545 399.102 93.4545C402.648 93.4545 405.637 94.3182 408.068 96.0455C410.523 97.75 412.25 100.08 413.25 103.034H413.796C414.955 100.125 416.909 97.8068 419.659 96.0795C422.432 94.3295 425.716 93.4545 429.512 93.4545C434.33 93.4545 438.262 94.9773 441.307 98.0227C444.352 101.068 445.875 105.511 445.875 111.352V146.5H433.5V113.261C433.5 110.011 432.637 107.636 430.909 106.136C429.182 104.614 427.068 103.852 424.568 103.852C421.591 103.852 419.262 104.784 417.58 106.648C415.921 108.489 415.091 110.886 415.091 113.841V146.5H402.989V112.75C402.989 110.045 402.171 107.886 400.534 106.273C398.921 104.659 396.807 103.852 394.193 103.852C392.421 103.852 390.807 104.307 389.352 105.216C387.898 106.102 386.739 107.364 385.875 109C385.012 110.614 384.58 112.5 384.58 114.659V146.5H372.239ZM481.577 147.523C476.327 147.523 471.793 146.432 467.975 144.25C464.179 142.045 461.259 138.932 459.213 134.909C457.168 130.864 456.145 126.102 456.145 120.625C456.145 115.239 457.168 110.511 459.213 106.443C461.281 102.352 464.168 99.1705 467.872 96.8977C471.577 94.6023 475.929 93.4545 480.929 93.4545C484.156 93.4545 487.202 93.9773 490.066 95.0227C492.952 96.0455 495.497 97.6364 497.702 99.7955C499.929 101.955 501.679 104.705 502.952 108.045C504.225 111.364 504.861 115.318 504.861 119.909V123.693H461.941V115.375H493.031C493.009 113.011 492.497 110.909 491.497 109.068C490.497 107.205 489.1 105.739 487.304 104.67C485.531 103.602 483.463 103.068 481.1 103.068C478.577 103.068 476.361 103.682 474.452 104.909C472.543 106.114 471.054 107.705 469.986 109.682C468.941 111.636 468.406 113.784 468.384 116.125V123.386C468.384 126.432 468.941 129.045 470.054 131.227C471.168 133.386 472.725 135.045 474.725 136.205C476.725 137.341 479.066 137.909 481.747 137.909C483.543 137.909 485.168 137.659 486.622 137.159C488.077 136.636 489.338 135.875 490.406 134.875C491.475 133.875 492.281 132.636 492.827 131.159L504.35 132.455C503.622 135.5 502.236 138.159 500.191 140.432C498.168 142.682 495.577 144.432 492.418 145.682C489.259 146.909 485.645 147.523 481.577 147.523ZM534.733 147.42C530.62 147.42 526.938 146.364 523.688 144.25C520.438 142.136 517.87 139.068 515.983 135.045C514.097 131.023 513.154 126.136 513.154 120.386C513.154 114.568 514.108 109.659 516.017 105.659C517.949 101.636 520.551 98.6023 523.824 96.5568C527.097 94.4886 530.745 93.4545 534.767 93.4545C537.835 93.4545 540.358 93.9773 542.335 95.0227C544.313 96.0455 545.881 97.2841 547.04 98.7386C548.199 100.17 549.097 101.523 549.733 102.795H550.245V76.6818H562.62V146.5H550.483V138.25H549.733C549.097 139.523 548.176 140.875 546.972 142.307C545.767 143.716 544.176 144.92 542.199 145.92C540.222 146.92 537.733 147.42 534.733 147.42ZM538.176 137.295C540.79 137.295 543.017 136.591 544.858 135.182C546.699 133.75 548.097 131.761 549.051 129.216C550.006 126.67 550.483 123.705 550.483 120.318C550.483 116.932 550.006 113.989 549.051 111.489C548.12 108.989 546.733 107.045 544.892 105.659C543.074 104.273 540.835 103.58 538.176 103.58C535.426 103.58 533.131 104.295 531.29 105.727C529.449 107.159 528.063 109.136 527.131 111.659C526.199 114.182 525.733 117.068 525.733 120.318C525.733 123.591 526.199 126.511 527.131 129.08C528.085 131.625 529.483 133.636 531.324 135.114C533.188 136.568 535.472 137.295 538.176 137.295Z" fill="#F3ECF8"/>
</svg>
