<svg width="225" height="80" viewBox="0 0 225 80" fill="none" xmlns="http://www.w3.org/2000/svg">
<path d="M36.3377 32.2595C36.3967 32.2594 36.4556 32.2593 36.5145 32.2592C36.6417 32.259 36.7689 32.259 36.8961 32.2591C37.0852 32.2592 37.2744 32.259 37.4635 32.2588C37.8211 32.2585 38.1787 32.2584 38.5363 32.2585C38.8126 32.2585 39.0888 32.2585 39.365 32.2584C39.4048 32.2584 39.4446 32.2584 39.4844 32.2584C39.5444 32.2583 39.6043 32.2583 39.6643 32.2583C40.2213 32.2581 40.7782 32.258 41.3352 32.2581C41.3666 32.2581 41.3666 32.2581 41.3987 32.2581C41.505 32.2581 41.6112 32.2581 41.7174 32.2582C41.7385 32.2582 41.7596 32.2582 41.7814 32.2582C41.824 32.2582 41.8667 32.2582 41.9093 32.2582C42.5731 32.2583 43.2369 32.2581 43.9007 32.2577C44.6477 32.2572 45.3947 32.2569 46.1416 32.257C46.2214 32.257 46.3011 32.2571 46.3809 32.2571C46.4005 32.2571 46.4201 32.2571 46.4404 32.2571C46.7359 32.2571 47.0314 32.2569 47.3269 32.2567C47.6631 32.2564 47.9994 32.2564 48.3357 32.2567C48.5235 32.2568 48.7114 32.2568 48.8992 32.2565C49.04 32.2562 49.1808 32.2564 49.3215 32.2567C49.3781 32.2567 49.4346 32.2567 49.4912 32.2565C49.9471 32.2551 50.3956 32.2899 50.841 32.3923C50.8635 32.3974 50.886 32.4025 50.9092 32.4077C51.9773 32.655 52.9682 33.1727 53.7684 33.9229C53.8209 33.9716 53.8742 34.0181 53.9291 34.064C54.2862 34.3752 54.5838 34.7746 54.8346 35.174C54.8438 35.1886 54.853 35.2031 54.8625 35.2182C55.0036 35.4426 55.127 35.6735 55.2404 35.913C55.2483 35.9296 55.2563 35.9463 55.2645 35.9635C56.021 37.5592 55.9651 39.315 55.4313 40.9667C55.4208 40.9994 55.4208 40.9994 55.41 41.0328C55.3081 41.3444 55.1845 41.6455 55.0494 41.944C55.0396 41.9659 55.0297 41.9877 55.0196 42.0102C54.6697 42.7805 54.211 43.5054 53.653 44.1427C53.6256 44.175 53.5989 44.2079 53.5726 44.2411C53.4367 44.4115 53.2902 44.5665 53.1355 44.7198C53.0952 44.7599 53.0551 44.8002 53.015 44.8405C52.8571 44.9984 52.6944 45.1425 52.5193 45.2814C52.493 45.3037 52.4668 45.3261 52.4409 45.3488C52.2307 45.5318 52.0078 45.6941 51.7793 45.8535C51.7641 45.8642 51.749 45.8748 51.7333 45.8858C51.4727 46.0677 51.1985 46.2251 50.9201 46.3779C50.898 46.3901 50.876 46.4022 50.8532 46.4147C49.9439 46.9108 48.9519 47.2359 47.9319 47.4089C47.9145 47.4119 47.897 47.4149 47.879 47.418C47.3885 47.501 46.9042 47.5293 46.407 47.5284C46.3481 47.5285 46.2892 47.5286 46.2303 47.5287C46.1031 47.5289 45.9759 47.5289 45.8487 47.5288C45.6596 47.5287 45.4704 47.5288 45.2812 47.529C44.9237 47.5294 44.5661 47.5294 44.2085 47.5294C43.9322 47.5293 43.656 47.5294 43.3797 47.5295C43.34 47.5295 43.3002 47.5295 43.2604 47.5295C43.2004 47.5295 43.1405 47.5296 43.0805 47.5296C42.5235 47.5298 41.9666 47.5299 41.4096 47.5298C41.3781 47.5298 41.3781 47.5298 41.3461 47.5298C41.2398 47.5298 41.1336 47.5297 41.0274 47.5297C41.0063 47.5297 40.9852 47.5297 40.9634 47.5297C40.9208 47.5297 40.8781 47.5297 40.8354 47.5297C40.1716 47.5296 39.5078 47.5297 38.844 47.5302C38.0971 47.5307 37.3501 47.5309 36.6031 47.5308C36.5234 47.5308 36.4437 47.5308 36.3639 47.5308C36.3345 47.5308 36.3345 47.5308 36.3044 47.5308C36.0089 47.5308 35.7134 47.5309 35.4179 47.5312C35.0816 47.5315 34.7454 47.5315 34.4091 47.5312C34.2212 47.5311 34.0334 47.5311 33.8456 47.5314C33.7048 47.5316 33.564 47.5315 33.4232 47.5312C33.3667 47.5311 33.3101 47.5312 33.2536 47.5314C32.7977 47.5328 32.3491 47.498 31.9038 47.3955C31.8701 47.3879 31.8701 47.3879 31.8356 47.3801C30.7675 47.1328 29.7766 46.6152 28.9764 45.865C28.9239 45.8162 28.8706 45.7698 28.8157 45.7239C28.4585 45.4127 28.161 45.0132 27.9102 44.6139C27.901 44.5993 27.8917 44.5847 27.8822 44.5697C27.7412 44.3453 27.6178 44.1143 27.5044 43.8749C27.4964 43.8582 27.4885 43.8416 27.4803 43.8244C26.7238 42.2287 26.7797 40.4728 27.3135 38.8212C27.3205 38.7994 27.3276 38.7775 27.3348 38.755C27.4367 38.4435 27.5603 38.1424 27.6954 37.8439C27.7052 37.822 27.7151 37.8002 27.7252 37.7776C28.0751 37.0074 28.5338 36.2825 29.0918 35.6452C29.1192 35.6129 29.1459 35.58 29.1722 35.5468C29.3081 35.3764 29.4546 35.2214 29.6093 35.068C29.6496 35.028 29.6897 34.9877 29.7297 34.9474C29.8877 34.7895 30.0504 34.6454 30.2255 34.5065C30.2518 34.4842 30.278 34.4618 30.3039 34.4391C30.514 34.2561 30.737 34.0937 30.9654 33.9344C30.9806 33.9237 30.9958 33.9131 31.0115 33.9021C31.2721 33.7202 31.5463 33.5628 31.8247 33.4099C31.8468 33.3978 31.8688 33.3857 31.8915 33.3732C32.8009 32.8771 33.7929 32.552 34.8128 32.3789C34.8303 32.3759 34.8478 32.373 34.8658 32.3699C35.3563 32.2869 35.8406 32.2586 36.3377 32.2595Z" fill="url(#paint0_linear_7980_5848)"/>
<path d="M43.498 34.1727C44.2905 34.1716 45.0829 34.1708 45.8753 34.1703C45.969 34.1702 46.0628 34.1701 46.1565 34.1701C46.1752 34.1701 46.1938 34.1701 46.2131 34.17C46.5144 34.1698 46.8158 34.1695 47.1172 34.169C47.4269 34.1686 47.7366 34.1683 48.0463 34.1682C48.2371 34.1682 48.4279 34.1679 48.6187 34.1676C48.7655 34.1673 48.9123 34.1672 49.0591 34.1673C49.1189 34.1673 49.1788 34.1672 49.2387 34.167C50.5539 34.1632 51.7185 34.5764 52.6638 35.5076C53.5306 36.3822 53.9154 37.5349 53.9123 38.7435C53.9068 39.5511 53.6591 40.3516 53.3321 41.0858C53.3224 41.1077 53.3127 41.1296 53.3027 41.1522C53.0126 41.7984 52.6318 42.445 52.1425 42.9618C52.0991 43.008 52.0579 43.0549 52.0166 43.1029C51.9093 43.2258 51.7946 43.3409 51.6792 43.4562C51.6582 43.4774 51.6373 43.4986 51.6157 43.5205C51.4714 43.665 51.3203 43.7961 51.16 43.9225C51.1347 43.943 51.1094 43.9634 51.0841 43.9839C50.7342 44.2579 50.3604 44.503 49.9666 44.7092C49.9436 44.7213 49.9436 44.7213 49.9201 44.7335C49.8093 44.7911 49.6974 44.8462 49.5847 44.8999C49.5689 44.9075 49.5531 44.9151 49.5369 44.9229C48.9708 45.1922 48.3833 45.3707 47.7706 45.4959C47.75 45.5002 47.7294 45.5045 47.7082 45.509C46.9885 45.6574 46.2363 45.6216 45.5059 45.6199C45.3552 45.6196 45.2045 45.6196 45.0537 45.6195C44.8015 45.6194 44.5493 45.6191 44.2971 45.6187C44.0377 45.6182 43.7783 45.6179 43.5189 45.6177C43.4948 45.6177 43.4948 45.6177 43.4702 45.6176C43.3895 45.6176 43.3088 45.6175 43.2281 45.6175C42.5622 45.617 41.8963 45.6161 41.2305 45.6151C41.2435 45.4847 41.2607 45.3571 41.2866 45.2286C41.2898 45.2124 41.2931 45.1962 41.2964 45.1796C41.3073 45.125 41.3184 45.0705 41.3295 45.016C41.3376 44.9753 41.3458 44.9347 41.354 44.894C41.3721 44.8036 41.3903 44.7133 41.4086 44.6229C41.4394 44.4704 41.4701 44.3179 41.5007 44.1653C41.5362 43.9891 41.5716 43.8128 41.6071 43.6366C41.7163 43.0936 41.8252 42.5505 41.934 42.0074C41.9407 41.9739 41.9407 41.9739 41.9475 41.9398C41.994 41.7078 42.0405 41.4758 42.0869 41.2438C42.1494 40.9319 42.2119 40.6199 42.2744 40.308C42.2792 40.2839 42.284 40.2599 42.289 40.2351C42.3085 40.1375 42.3281 40.0399 42.3476 39.9422C42.3822 39.7699 42.4167 39.5975 42.4512 39.4251C42.5573 38.8956 42.6634 38.366 42.7695 37.8364C42.8539 37.4153 42.9382 36.9942 43.0226 36.5731C43.0741 36.3155 43.1257 36.058 43.1774 35.8004C43.2124 35.6256 43.2474 35.4507 43.2824 35.2759C43.3026 35.1752 43.3227 35.0746 43.3429 34.9739C43.3614 34.8819 43.3798 34.7899 43.3982 34.6979C43.4049 34.6646 43.4115 34.6314 43.4182 34.5981C43.4273 34.5529 43.4363 34.5077 43.4454 34.4626C43.4504 34.4375 43.4554 34.4124 43.4606 34.3865C43.4742 34.3154 43.4864 34.2442 43.498 34.1727Z" fill="url(#paint1_linear_7980_5848)"/>
<path d="M37.2404 34.1676C37.3911 34.1679 37.5418 34.168 37.6926 34.168C37.9448 34.1681 38.197 34.1684 38.4492 34.1689C38.7086 34.1693 38.968 34.1696 39.2274 34.1698C39.2515 34.1699 39.2515 34.1699 39.2761 34.1699C39.3568 34.1699 39.4375 34.17 39.5182 34.1701C40.1841 34.1706 40.85 34.1714 41.5158 34.1725C41.5122 34.2066 41.5085 34.2407 41.5047 34.2748C41.5016 34.3033 41.5016 34.3033 41.4985 34.3324C41.4903 34.4012 41.478 34.4687 41.4644 34.5366C41.4592 34.5626 41.454 34.5886 41.4486 34.6154C41.4432 34.6418 41.4378 34.6682 41.4323 34.6954C41.4269 34.7225 41.4215 34.7495 41.416 34.7774C41.3758 34.9767 41.3758 34.9767 41.3487 35.0306C41.3206 35.0307 41.2925 35.0308 41.2635 35.0308C40.5937 35.0322 39.924 35.0339 39.2543 35.0361C39.1717 35.0364 39.089 35.0366 39.0064 35.0369C38.99 35.0369 38.9735 35.037 38.9566 35.0371C38.6911 35.0379 38.4256 35.0385 38.1601 35.039C37.8872 35.0395 37.6142 35.0403 37.3413 35.0413C37.1883 35.0419 37.0352 35.0424 36.8821 35.0425C36.7377 35.0426 36.5933 35.0431 36.4489 35.0439C36.3962 35.0441 36.3435 35.0442 36.2908 35.0441C35.8913 35.0439 35.5127 35.0773 35.1278 35.1915C35.1067 35.1978 35.0856 35.204 35.0638 35.2104C34.8674 35.2699 34.6831 35.3471 34.4983 35.4359C34.4612 35.4536 34.4612 35.4536 34.4233 35.4717C34.2752 35.5425 34.1274 35.6138 33.9797 35.6855C33.8561 35.7456 33.7322 35.8048 33.6079 35.8635C33.3537 35.9838 33.1013 36.1077 32.8494 36.2327C32.8095 36.2524 32.7696 36.2722 32.7297 36.2918C32.512 36.3991 32.3008 36.5098 32.0969 36.6416C32.0398 36.6755 32.0398 36.6755 31.992 36.6755C31.992 36.6912 31.992 36.7069 31.992 36.7232C32.0148 36.7148 32.0376 36.7064 32.0611 36.6977C32.9326 36.3774 33.8064 36.0698 34.7407 36.0054C34.7696 36.0034 34.7986 36.0013 34.8283 35.9993C35.1282 35.9799 35.4271 35.9778 35.7274 35.9788C35.7873 35.9788 35.8471 35.9788 35.9069 35.9787C36.0341 35.9787 36.1613 35.9789 36.2885 35.9791C36.4724 35.9795 36.6562 35.9796 36.8401 35.9797C37.1387 35.9798 37.4372 35.9801 37.7357 35.9806C38.0252 35.981 38.3147 35.9813 38.6042 35.9816C38.6311 35.9816 38.6311 35.9816 38.6586 35.9816C38.7486 35.9817 38.8386 35.9817 38.9285 35.9818C39.6716 35.9823 40.4147 35.9831 41.1578 35.9842C41.1243 36.2173 41.0812 36.448 41.0347 36.6788C41.0271 36.7168 41.0195 36.7548 41.0119 36.7929C40.9911 36.8965 40.9703 37.0002 40.9495 37.1039C40.927 37.2159 40.9045 37.3281 40.8821 37.4402C40.8432 37.6342 40.8043 37.8282 40.7654 38.0221C40.709 38.3028 40.6528 38.5834 40.5965 38.864C40.5053 39.3196 40.4139 39.7752 40.3225 40.2307C40.2338 40.6728 40.1452 41.1148 40.0566 41.5569C40.0511 41.5841 40.0456 41.6114 40.04 41.6395C39.9804 41.9369 39.9207 42.2344 39.8611 42.5318C39.8559 42.558 39.8506 42.5841 39.8452 42.611C39.8243 42.7155 39.8034 42.8199 39.7824 42.9244C39.7211 43.2302 39.6598 43.5361 39.5984 43.8419C39.56 44.0335 39.5215 44.2252 39.4831 44.4169C39.4609 44.5275 39.4388 44.6382 39.4165 44.7488C39.3962 44.85 39.3759 44.9512 39.3556 45.0525C39.3483 45.0891 39.3409 45.1258 39.3336 45.1624C39.3236 45.2122 39.3136 45.262 39.3036 45.3117C39.2981 45.3394 39.2925 45.367 39.2868 45.3955C39.2728 45.4685 39.2601 45.5415 39.2483 45.6148C38.4447 45.6176 37.6412 45.6197 36.8376 45.6209C36.7424 45.6211 36.6471 45.6212 36.5519 45.6214C36.5235 45.6214 36.5235 45.6214 36.4945 45.6215C36.189 45.622 35.8835 45.6229 35.5781 45.624C35.2638 45.6251 34.9495 45.6258 34.6352 45.626C34.4418 45.6262 34.2485 45.6267 34.0551 45.6277C33.9218 45.6283 33.7886 45.6285 33.6554 45.6283C33.5789 45.6283 33.5024 45.6284 33.426 45.629C32.6737 45.6345 31.9763 45.4889 31.2998 45.1619C31.2843 45.1545 31.2688 45.147 31.2529 45.1394C30.4352 44.7419 29.7625 44.0558 29.3426 43.2548C29.334 43.2386 29.3254 43.2224 29.3166 43.2056C29.0389 42.6726 28.8413 42.0667 28.8356 41.4623C28.8354 41.4418 28.8352 41.4212 28.8349 41.4001C28.8275 40.5826 28.8275 40.5826 28.9217 40.2154C28.9381 40.1508 28.9524 40.086 28.9666 40.021C29.1714 39.115 29.5646 38.2186 30.1064 37.4621C30.1194 37.4439 30.1324 37.4257 30.1458 37.4069C30.2898 37.2057 30.4334 37.0056 30.6038 36.8257C30.6472 36.7796 30.6884 36.7326 30.7297 36.6846C30.837 36.5617 30.9517 36.4466 31.0671 36.3313C31.0881 36.3101 31.109 36.2889 31.1306 36.267C31.2749 36.1226 31.426 35.9915 31.5863 35.865C31.6116 35.8445 31.6369 35.8241 31.6622 35.8036C32.2927 35.3099 33.0046 34.8995 33.7584 34.6254C33.7758 34.619 33.7932 34.6126 33.8112 34.606C34.938 34.1968 36.0567 34.1649 37.2404 34.1676Z" fill="#F3ECF8"/>
<path d="M30.4187 33.7049C30.3527 33.7561 30.2857 33.7998 30.2133 33.8411C29.9288 34.0051 29.6559 34.1768 29.3923 34.3724C29.3786 34.3825 29.3648 34.3926 29.3507 34.403C28.766 34.8346 28.2165 35.3491 27.7692 35.9219C27.7424 35.9556 27.7156 35.9894 27.6887 36.0232C27.5443 36.206 27.405 36.3867 27.2857 36.5872C27.2313 36.6522 27.2089 36.6515 27.1247 36.6608C27.0484 36.6593 26.9726 36.6529 26.8965 36.6464C26.8733 36.6446 26.8501 36.6427 26.8261 36.6408C26.7478 36.6345 26.6696 36.628 26.5913 36.6215C26.5348 36.6169 26.4783 36.6124 26.4218 36.6078C26.2987 36.5978 26.1756 36.5878 26.0526 36.5776C25.8695 36.5625 25.6865 36.5476 25.5035 36.5328C25.1577 36.5047 24.8118 36.4764 24.466 36.448C24.1991 36.4261 23.9322 36.4042 23.6652 36.3824C23.6269 36.3793 23.5886 36.3762 23.5503 36.373C23.4925 36.3683 23.4348 36.3636 23.3771 36.3589C22.8402 36.315 22.3033 36.2711 21.7664 36.227C21.7461 36.2254 21.7259 36.2237 21.705 36.222C21.5406 36.2085 21.3762 36.195 21.2117 36.1815C20.57 36.1288 19.9282 36.0763 19.2864 36.024C18.5658 35.9653 17.8452 35.9064 17.1247 35.8473C17.0479 35.841 16.9712 35.8347 16.8944 35.8284C16.8661 35.8261 16.8661 35.8261 16.8371 35.8237C16.5513 35.8003 16.2654 35.777 15.9795 35.7537C15.6546 35.7273 15.3298 35.7007 15.0049 35.6739C14.8229 35.6588 14.6409 35.644 14.4589 35.6292C14.3234 35.6183 14.1879 35.6071 14.0524 35.5958C13.9973 35.5912 13.9422 35.5867 13.887 35.5823C13.8126 35.5764 13.7383 35.5702 13.6639 35.5639C13.6421 35.5622 13.6202 35.5605 13.5977 35.5588C13.5475 35.5544 13.4975 35.5477 13.4477 35.5404C13.4398 35.5247 13.4319 35.509 13.4238 35.4928C14.5089 35.3771 15.594 35.2615 16.6791 35.1458C16.6955 35.1441 16.7119 35.1423 16.7287 35.1405C17.0857 35.1025 17.4427 35.0644 17.7996 35.0264C17.975 35.0077 18.1504 34.989 18.3257 34.9703C18.3432 34.9684 18.3606 34.9666 18.3786 34.9647C18.8639 34.9129 19.3492 34.8612 19.8345 34.8095C19.9528 34.7969 20.0711 34.7843 20.1894 34.7716C20.24 34.7663 20.2906 34.7609 20.3411 34.7555C20.3748 34.7519 20.4085 34.7483 20.4421 34.7447C20.627 34.725 20.8119 34.7053 20.9968 34.6856C21.198 34.6641 21.3993 34.6427 21.6005 34.6212C21.6171 34.6195 21.6336 34.6177 21.6507 34.6159C22.1164 34.5662 22.5822 34.5166 23.048 34.467C23.3431 34.4356 23.6383 34.4041 23.9335 34.3727C23.9821 34.3675 24.0306 34.3623 24.0792 34.3572C24.9458 34.2649 25.8123 34.1723 26.6788 34.0795C26.8782 34.0581 27.0777 34.0368 27.2771 34.0155C27.3045 34.0125 27.3319 34.0096 27.3601 34.0066C27.4955 33.9921 27.6308 33.9777 27.7662 33.9632C28.0493 33.9329 28.3325 33.9026 28.6156 33.8721C28.8042 33.8519 28.9927 33.8317 29.1813 33.8116C29.2885 33.8001 29.3958 33.7887 29.503 33.7771C29.6003 33.7666 29.6976 33.7562 29.7949 33.7458C29.8298 33.7421 29.8648 33.7384 29.8997 33.7345C30.0736 33.7156 30.2437 33.7004 30.4187 33.7049Z" fill="url(#paint2_linear_7980_5848)"/>
<path d="M26.3358 38.5115C26.32 38.5996 26.2965 38.6818 26.2676 38.7665C26.0447 39.4321 25.8937 40.0972 25.8584 40.8C25.6675 40.786 25.4812 40.759 25.2929 40.7253C25.2634 40.7201 25.234 40.7149 25.2037 40.7096C25.1225 40.6953 25.0414 40.6809 24.9603 40.6664C24.8723 40.6508 24.7843 40.6353 24.6964 40.6198C24.5437 40.5928 24.391 40.5657 24.2383 40.5387C24.0169 40.4994 23.7955 40.4602 23.5741 40.421C23.2327 40.3607 22.8913 40.3003 22.5499 40.2398C21.9769 40.1383 21.4038 40.0371 20.8308 39.9359C20.785 39.9278 20.7393 39.9198 20.6936 39.9117C20.5138 39.88 20.334 39.8482 20.1542 39.8165C19.7077 39.7377 19.2612 39.6588 18.8147 39.5799C18.7575 39.5698 18.7003 39.5597 18.6431 39.5496C18.4385 39.5135 18.2339 39.4773 18.0293 39.4412C18.0293 39.4254 18.0293 39.4097 18.0293 39.3935C19.0565 39.281 20.0836 39.1686 21.1108 39.0564C21.2321 39.0432 21.3533 39.0299 21.4746 39.0167C21.5108 39.0127 21.5108 39.0127 21.5478 39.0087C21.9387 38.966 22.3296 38.9232 22.7205 38.8803C23.1216 38.8364 23.5227 38.7926 23.9238 38.7488C24.1713 38.7218 24.4188 38.6947 24.6663 38.6675C24.836 38.6489 25.0058 38.6304 25.1755 38.6119C25.2734 38.6012 25.3713 38.5905 25.4692 38.5797C25.5589 38.5698 25.6487 38.5601 25.7384 38.5504C25.7861 38.5452 25.8338 38.5399 25.8814 38.5346C26.0339 38.5182 26.1824 38.5078 26.3358 38.5115Z" fill="url(#paint3_linear_7980_5848)"/>
<path d="M50.8725 43.0642C50.689 43.1965 50.4905 43.2974 50.2892 43.3995C50.2541 43.4174 50.2189 43.4354 50.1837 43.4533C50.0793 43.5066 49.9747 43.5596 49.87 43.6125C49.8551 43.6201 49.8401 43.6277 49.8246 43.6355C49.4759 43.812 49.1254 43.9846 48.7717 44.151C48.6957 44.1869 48.62 44.2232 48.5442 44.2595C47.9733 44.5307 47.3828 44.7379 46.744 44.7358C46.7095 44.7358 46.7095 44.7358 46.6743 44.7358C46.5978 44.7359 46.5213 44.7358 46.4448 44.7356C46.3897 44.7356 46.3346 44.7356 46.2796 44.7356C46.1305 44.7356 45.9813 44.7355 45.8322 44.7353C45.6763 44.7352 45.5203 44.7352 45.3643 44.7351C45.1027 44.7351 44.841 44.7349 44.5793 44.7347C44.3099 44.7345 44.0405 44.7343 43.771 44.7342C43.7461 44.7342 43.7461 44.7342 43.7206 44.7342C43.6372 44.7342 43.5538 44.7341 43.4704 44.7341C42.7791 44.7339 42.0878 44.7334 41.3965 44.7329C41.4041 44.6831 41.4117 44.6333 41.4194 44.5835C41.4236 44.5558 41.4278 44.5281 41.4322 44.4995C41.4446 44.4207 41.4585 44.3423 41.4742 44.2641C41.4793 44.2384 41.4844 44.2127 41.4897 44.1863C41.4949 44.1607 41.5 44.135 41.5054 44.1086C41.5107 44.082 41.5159 44.0554 41.5214 44.028C41.5265 44.0026 41.5316 43.9773 41.5368 43.9512C41.5414 43.9284 41.546 43.9057 41.5507 43.8823C41.5636 43.8271 41.5636 43.8271 41.5874 43.7794C41.6005 43.7794 41.6136 43.7793 41.627 43.7793C42.4048 43.7779 43.1826 43.7762 43.9604 43.7739C44.0542 43.7737 44.1479 43.7734 44.2417 43.7731C44.2697 43.773 44.2697 43.773 44.2982 43.773C44.5989 43.7721 44.8996 43.7715 45.2003 43.771C45.5097 43.7705 45.8191 43.7697 46.1285 43.7687C46.3188 43.7681 46.5091 43.7676 46.6994 43.7675C46.8463 43.7673 46.9932 43.7668 47.1401 43.7662C47.1997 43.766 47.2592 43.7659 47.3188 43.7659C47.8802 43.7662 48.4412 43.7296 48.9899 43.6051C49.0232 43.5978 49.0565 43.5904 49.0898 43.5831C49.3226 43.5313 49.5507 43.4691 49.7758 43.3903C49.8491 43.3648 49.923 43.3414 49.9968 43.3175C50.1753 43.2578 50.352 43.1932 50.5286 43.1281C50.5501 43.1202 50.5717 43.1122 50.5938 43.1041C50.6131 43.097 50.6323 43.0899 50.6521 43.0826C50.7877 43.036 50.7877 43.036 50.8725 43.0642Z" fill="#F3ECF8"/>
<path d="M26.0735 42.7545C26.0845 42.7839 26.0954 42.8132 26.1066 42.8435C26.4135 43.6885 26.4135 43.6885 26.7846 44.5067C26.8135 44.5662 26.8135 44.5662 26.8135 44.6139C26.6963 44.5992 26.5865 44.5762 26.4724 44.5446C26.4557 44.54 26.439 44.5354 26.4217 44.5307C26.366 44.5153 26.3104 44.4998 26.2547 44.4843C26.2145 44.4732 26.1744 44.4621 26.1342 44.451C26.0249 44.4209 25.9157 44.3906 25.8065 44.3602C25.6911 44.3282 25.5757 44.2963 25.4602 44.2644C25.2646 44.2103 25.069 44.1562 24.8734 44.102C24.57 44.0179 24.2666 43.9341 23.9632 43.8504C23.8633 43.8228 23.7635 43.7953 23.6636 43.7677C23.6392 43.761 23.6148 43.7542 23.5897 43.7473C22.8819 43.5519 22.1743 43.3562 21.4668 43.1597C21.4668 43.144 21.4668 43.1283 21.4668 43.1121C22.0216 43.0653 22.5764 43.0186 23.1313 42.9722C23.3889 42.9506 23.6466 42.929 23.9042 42.9073C24.1288 42.8883 24.3535 42.8694 24.5782 42.8507C24.697 42.8408 24.8159 42.8308 24.9348 42.8207C25.0468 42.8112 25.1589 42.8018 25.271 42.7925C25.3119 42.7891 25.3529 42.7857 25.3938 42.7821C25.6212 42.7627 25.8452 42.7495 26.0735 42.7545Z" fill="url(#paint4_linear_7980_5848)"/>
<path fill-rule="evenodd" clip-rule="evenodd" d="M15.6419 17.119C16.8119 17.119 17.9408 16.4257 18.5575 15.4335L45.3308 15.4335L45.7303 13.1861L18.957 13.1861C18.6931 12.1939 17.8108 11.5005 16.6408 11.5005C15.0649 11.5005 13.5638 12.7582 13.288 14.3098C13.0122 15.8613 14.066 17.119 15.6419 17.119ZM15.9416 15.4335C16.5719 15.4335 17.1723 14.9304 17.2827 14.3098C17.393 13.6892 16.9714 13.1861 16.3411 13.1861C15.7108 13.1861 15.1103 13.6892 15 14.3098C14.8897 14.9304 15.3112 15.4335 15.9416 15.4335Z" fill="#4B0082"/>
<path fill-rule="evenodd" clip-rule="evenodd" d="M71.4244 17.119C70.1999 17.119 69.2905 16.3596 69.0753 15.293H49.7784L47.031 30.7475H44.7483L47.8953 13.0456H69.5998C70.2326 12.129 71.3092 11.5005 72.4232 11.5005C73.9991 11.5005 75.053 12.7582 74.7771 14.3098C74.5013 15.8613 73.0002 17.119 71.4244 17.119ZM71.724 15.4335C71.0937 15.4335 70.6722 14.9304 70.7825 14.3098C70.8928 13.6892 71.4933 13.1861 72.1236 13.1861C72.7539 13.1861 73.1755 13.6892 73.0651 14.3098C72.9548 14.9304 72.3544 15.4335 71.724 15.4335Z" fill="#4B0082"/>
<path fill-rule="evenodd" clip-rule="evenodd" d="M42.2518 30.7475L44.5498 17.8213H23.3269C23.1117 16.7547 22.2024 15.9953 20.9779 15.9953C19.402 15.9953 17.9009 17.2531 17.6251 18.8046C17.3493 20.3561 18.4032 21.6139 19.979 21.6139C21.093 21.6139 22.1697 20.9853 22.8025 20.0688H41.8676L39.9692 30.7475H42.2518ZM21.6198 18.8046C21.5094 19.4252 20.909 19.9283 20.2787 19.9283C19.6483 19.9283 19.2268 19.4252 19.3371 18.8046C19.4474 18.184 20.0479 17.6809 20.6782 17.6809C21.3085 17.6809 21.7301 18.184 21.6198 18.8046Z" fill="#4B0082"/>
<path fill-rule="evenodd" clip-rule="evenodd" d="M36.6742 49.2817H38.9569L37.3218 58.4791C38.2934 58.8959 38.8516 59.9052 38.642 61.0842C38.3662 62.6357 36.8651 63.8935 35.2892 63.8935C33.7134 63.8935 32.6595 62.6357 32.9353 61.0842C33.1353 59.9596 33.9789 58.9893 35.0282 58.5405L36.6742 49.2817ZM35.5889 62.2079C36.2192 62.2079 36.8197 61.7048 36.93 61.0842C37.0403 60.4636 36.6188 59.9605 35.9884 59.9605C35.3581 59.9605 34.7577 60.4636 34.6473 61.0842C34.537 61.7048 34.9585 62.2079 35.5889 62.2079Z" fill="#4B0082"/>
<path fill-rule="evenodd" clip-rule="evenodd" d="M37.6151 30.7475L39.0641 22.5971H27.128C26.8641 21.6049 25.9818 20.9116 24.8117 20.9116C23.2359 20.9116 21.7348 22.1693 21.459 23.7208C21.1832 25.2724 22.237 26.5301 23.8129 26.5301C24.9829 26.5301 26.1118 25.8367 26.7285 24.8445H36.3819L35.3324 30.7475H37.6151ZM25.4536 23.7208C25.3433 24.3414 24.7429 24.8445 24.1125 24.8445C23.4822 24.8445 23.0607 24.3414 23.171 23.7208C23.2813 23.1002 23.8817 22.5971 24.5121 22.5971C25.1424 22.5971 25.564 23.1002 25.4536 23.7208Z" fill="#4B0082"/>
<path fill-rule="evenodd" clip-rule="evenodd" d="M32.0375 49.2817H34.3201L33.4289 54.2947C34.3596 54.7282 34.8879 55.7183 34.6831 56.8703C34.4073 58.4218 32.9062 59.6796 31.3304 59.6796C29.7545 59.6796 28.7006 58.4218 28.9765 56.8703C29.1813 55.7183 30.0615 54.7283 31.1463 54.2948L32.0375 49.2817ZM31.63 57.994C32.2604 57.994 32.8608 57.4909 32.9711 56.8703C33.0815 56.2497 32.6599 55.7466 32.0296 55.7466C31.3992 55.7466 30.7988 56.2497 30.6885 56.8703C30.5781 57.4909 30.9997 57.994 31.63 57.994Z" fill="#4B0082"/>
<path fill-rule="evenodd" clip-rule="evenodd" d="M41.4533 49.2817H43.736L41.2716 63.1439C42.2023 63.5774 42.7306 64.5675 42.5258 65.7195C42.25 67.271 40.7489 68.5288 39.1731 68.5288C37.5972 68.5288 36.5433 67.271 36.8192 65.7195C37.024 64.5676 37.9042 63.5776 38.9889 63.144L41.4533 49.2817ZM38.5312 65.7195C38.4208 66.3401 38.8424 66.8432 39.4727 66.8432C40.1031 66.8432 40.7035 66.3401 40.8138 65.7195C40.9241 65.0989 40.5026 64.5958 39.8723 64.5958C39.2419 64.5958 38.6415 65.0989 38.5312 65.7195Z" fill="#4B0082"/>
<path fill-rule="evenodd" clip-rule="evenodd" d="M63.2909 20.0688C63.5548 21.0609 64.4371 21.7543 65.6071 21.7543C67.183 21.7543 68.684 20.4966 68.9599 18.9451C69.2357 17.3935 68.1818 16.1358 66.606 16.1358C65.4359 16.1358 64.3071 16.8292 63.6904 17.8213L51.3264 17.8213L50.9268 20.0688L63.2909 20.0688ZM64.9652 18.9451C64.8549 19.5657 65.2764 20.0688 65.9068 20.0688C66.5371 20.0688 67.1375 19.5657 67.2479 18.9451C67.3582 18.3244 66.9366 17.8213 66.3063 17.8213C65.676 17.8213 65.0755 18.3244 64.9652 18.9451Z" fill="#4B0082"/>
<path fill-rule="evenodd" clip-rule="evenodd" d="M59.9075 26.5301C58.7375 26.5301 57.8552 25.8367 57.5913 24.8446L50.0778 24.8446L50.4773 22.5971L57.9908 22.5971C58.6075 21.6049 59.7363 20.9116 60.9064 20.9116C62.4822 20.9116 63.5361 22.1693 63.2603 23.7208C62.9844 25.2724 61.4834 26.5301 59.9075 26.5301ZM60.2072 24.8446C59.5768 24.8446 59.1553 24.3414 59.2656 23.7208C59.376 23.1002 59.9764 22.5971 60.6067 22.5971C61.2371 22.5971 61.6586 23.1002 61.5483 23.7208C61.438 24.3414 60.8375 24.8446 60.2072 24.8446Z" fill="#4B0082"/>
<path d="M83.1154 20.4137V16.9964H101.07V20.4137H94.1145V39.5H90.0709V20.4137H83.1154ZM104.355 39.5V22.6223H108.333V39.5H104.355ZM106.355 20.2269C105.725 20.2269 105.183 20.0181 104.729 19.6005C104.275 19.1757 104.048 18.6666 104.048 18.0732C104.048 17.4725 104.275 16.9634 104.729 16.5458C105.183 16.121 105.725 15.9085 106.355 15.9085C106.993 15.9085 107.535 16.121 107.982 16.5458C108.436 16.9634 108.663 17.4725 108.663 18.0732C108.663 18.6666 108.436 19.1757 107.982 19.6005C107.535 20.0181 106.993 20.2269 106.355 20.2269ZM117.28 39.8406C116.211 39.8406 115.247 39.6502 114.39 39.2692C113.541 38.881 112.867 38.3096 112.369 37.5551C111.878 36.8006 111.632 35.8703 111.632 34.7641C111.632 33.8118 111.808 33.0243 112.16 32.4017C112.511 31.779 112.991 31.2809 113.599 30.9073C114.207 30.5337 114.892 30.2517 115.654 30.0612C116.423 29.8634 117.218 29.7206 118.038 29.6327C119.027 29.5301 119.829 29.4386 120.445 29.358C121.06 29.2701 121.507 29.1382 121.785 28.9624C122.071 28.7793 122.214 28.4972 122.214 28.1163V28.0504C122.214 27.2226 121.968 26.5817 121.478 26.1275C120.987 25.6733 120.28 25.4462 119.357 25.4462C118.383 25.4462 117.61 25.6587 117.038 26.0835C116.474 26.5084 116.093 27.0102 115.896 27.5889L112.182 27.0615C112.475 26.0359 112.958 25.1788 113.632 24.4902C114.306 23.7943 115.13 23.2742 116.104 22.9299C117.079 22.5783 118.156 22.4025 119.335 22.4025C120.148 22.4025 120.958 22.4977 121.763 22.6882C122.569 22.8787 123.305 23.1937 123.972 23.6332C124.639 24.0654 125.173 24.6551 125.576 25.4023C125.986 26.1495 126.192 27.0834 126.192 28.2042V39.5H122.368V37.1815H122.236C121.994 37.6503 121.653 38.0899 121.214 38.5001C120.782 38.903 120.236 39.229 119.577 39.478C118.925 39.7198 118.159 39.8406 117.28 39.8406ZM118.313 36.9178C119.112 36.9178 119.804 36.7603 120.39 36.4453C120.976 36.123 121.426 35.6981 121.741 35.1707C122.064 34.6433 122.225 34.0682 122.225 33.4456V31.4567C122.1 31.5593 121.888 31.6545 121.588 31.7424C121.295 31.8303 120.965 31.9072 120.599 31.9731C120.232 32.0391 119.87 32.0977 119.511 32.149C119.152 32.2002 118.841 32.2442 118.577 32.2808C117.983 32.3614 117.452 32.4933 116.984 32.6764C116.515 32.8595 116.145 33.1159 115.874 33.4456C115.603 33.7679 115.467 34.1854 115.467 34.6982C115.467 35.4307 115.735 35.9838 116.269 36.3574C116.804 36.731 117.485 36.9178 118.313 36.9178ZM130.367 16.9964H135.356L142.036 33.3027H142.3L148.981 16.9964H153.969V39.5H150.058V24.0397H149.849L143.63 39.4341H140.707L134.488 24.0068H134.279V39.5H130.367V16.9964ZM165.705 39.8296C164.013 39.8296 162.551 39.478 161.321 38.7748C160.097 38.0642 159.156 37.0606 158.497 35.764C157.837 34.4601 157.508 32.9255 157.508 31.16C157.508 29.4239 157.837 27.9002 158.497 26.589C159.163 25.2704 160.094 24.2448 161.288 23.5123C162.482 22.7724 163.884 22.4025 165.496 22.4025C166.536 22.4025 167.518 22.571 168.441 22.908C169.371 23.2376 170.192 23.7504 170.902 24.4463C171.62 25.1422 172.184 26.0286 172.594 27.1054C173.005 28.1749 173.21 29.4495 173.21 30.9293V32.149H159.376V29.4679H169.397C169.389 28.706 169.225 28.0284 168.902 27.4351C168.58 26.8344 168.129 26.3619 167.551 26.0176C166.979 25.6733 166.313 25.5012 165.551 25.5012C164.738 25.5012 164.024 25.6989 163.408 26.0945C162.793 26.4828 162.313 26.9955 161.969 27.6328C161.632 28.2628 161.46 28.9551 161.452 29.7096V32.0501C161.452 33.0317 161.632 33.8741 161.991 34.5773C162.35 35.2732 162.852 35.808 163.496 36.1816C164.141 36.5479 164.895 36.731 165.76 36.731C166.338 36.731 166.862 36.6504 167.331 36.4893C167.8 36.3208 168.206 36.0754 168.551 35.7531C168.895 35.4307 169.155 35.0315 169.331 34.5554L173.045 34.9729C172.81 35.9545 172.364 36.8116 171.704 37.5441C171.052 38.2693 170.217 38.8334 169.199 39.2363C168.181 39.6319 167.016 39.8296 165.705 39.8296ZM182.838 39.7967C181.512 39.7967 180.325 39.456 179.278 38.7748C178.23 38.0935 177.403 37.1046 176.795 35.808C176.187 34.5114 175.883 32.9364 175.883 31.0831C175.883 29.2078 176.19 27.6255 176.806 26.3363C177.428 25.0397 178.267 24.0617 179.322 23.4024C180.377 22.7358 181.552 22.4025 182.849 22.4025C183.838 22.4025 184.651 22.571 185.288 22.908C185.926 23.2376 186.431 23.6368 186.805 24.1057C187.178 24.5672 187.468 25.003 187.673 25.4133H187.838V16.9964H191.826V39.5H187.914V36.8409H187.673C187.468 37.2511 187.171 37.687 186.783 38.1485C186.394 38.6026 185.882 38.9909 185.244 39.3132C184.607 39.6355 183.805 39.7967 182.838 39.7967ZM183.948 36.5332C184.79 36.5332 185.508 36.3061 186.101 35.8519C186.695 35.3904 187.145 34.7495 187.453 33.929C187.761 33.1086 187.914 32.1526 187.914 31.0611C187.914 29.9697 187.761 29.021 187.453 28.2152C187.153 27.4094 186.706 26.7831 186.112 26.3363C185.526 25.8894 184.805 25.666 183.948 25.666C183.061 25.666 182.322 25.8967 181.728 26.3582C181.135 26.8197 180.688 27.457 180.388 28.2702C180.087 29.0833 179.937 30.0136 179.937 31.0611C179.937 32.116 180.087 33.0573 180.388 33.8851C180.695 34.7055 181.146 35.3538 181.739 35.83C182.34 36.2988 183.076 36.5332 183.948 36.5332ZM209.404 27.0834L205.778 27.479C205.676 27.1127 205.496 26.7685 205.24 26.4461C204.991 26.1238 204.654 25.8638 204.229 25.666C203.804 25.4682 203.284 25.3693 202.669 25.3693C201.841 25.3693 201.145 25.5488 200.581 25.9077C200.024 26.2667 199.75 26.7318 199.757 27.3032C199.75 27.794 199.929 28.1932 200.295 28.5009C200.669 28.8086 201.284 29.0613 202.141 29.2591L205.02 29.8744C206.617 30.2187 207.804 30.7645 208.58 31.5116C209.364 32.2588 209.76 33.2368 209.767 34.4455C209.76 35.5077 209.448 36.4453 208.833 37.2584C208.225 38.0642 207.379 38.6942 206.295 39.1484C205.211 39.6026 203.965 39.8296 202.559 39.8296C200.493 39.8296 198.83 39.3974 197.57 38.533C196.31 37.6613 195.559 36.449 195.318 34.896L199.197 34.5224C199.372 35.2842 199.746 35.8593 200.317 36.2475C200.889 36.6358 201.632 36.8299 202.548 36.8299C203.493 36.8299 204.251 36.6358 204.822 36.2475C205.401 35.8593 205.69 35.3795 205.69 34.8081C205.69 34.3246 205.504 33.9254 205.13 33.6104C204.764 33.2954 204.192 33.0536 203.416 32.8852L200.537 32.2808C198.918 31.9438 197.72 31.3761 196.944 30.5777C196.167 29.7719 195.783 28.7536 195.79 27.523C195.783 26.4828 196.065 25.5817 196.636 24.8199C197.215 24.0507 198.017 23.4574 199.043 23.0398C200.076 22.6149 201.266 22.4025 202.614 22.4025C204.592 22.4025 206.148 22.8237 207.284 23.6661C208.427 24.5086 209.133 25.6477 209.404 27.0834Z" fill="#4B0082"/>
<path d="M88.2162 49.3936V56.5H87.144V49.3936H88.2162ZM90.7319 53.3354V56.5H89.6944V51.1702H90.6903V52.0377H90.7562C90.8788 51.7555 91.0708 51.5288 91.3322 51.3576C91.5959 51.1864 91.9279 51.1008 92.3281 51.1008C92.6913 51.1008 93.0093 51.1771 93.2823 51.3298C93.5553 51.4802 93.767 51.7046 93.9173 52.003C94.0677 52.3014 94.1429 52.6704 94.1429 53.1099V56.5H93.1054V53.2348C93.1054 52.8485 93.0047 52.5466 92.8035 52.3291C92.6022 52.1094 92.3258 51.9995 91.9742 51.9995C91.7336 51.9995 91.5196 52.0516 91.3322 52.1557C91.1472 52.2597 91.0003 52.4124 90.8915 52.6137C90.7851 52.8126 90.7319 53.0532 90.7319 53.3354ZM96.5718 53.3354V56.5H95.5343V51.1702H96.5302V52.0377H96.5961C96.7187 51.7555 96.9107 51.5288 97.1721 51.3576C97.4358 51.1864 97.7678 51.1008 98.168 51.1008C98.5312 51.1008 98.8492 51.1771 99.1222 51.3298C99.3952 51.4802 99.6068 51.7046 99.7572 52.003C99.9076 52.3014 99.9827 52.6704 99.9827 53.1099V56.5H98.9452V53.2348C98.9452 52.8485 98.8446 52.5466 98.6434 52.3291C98.4421 52.1094 98.1657 51.9995 97.814 51.9995C97.5735 51.9995 97.3595 52.0516 97.1721 52.1557C96.987 52.2597 96.8402 52.4124 96.7314 52.6137C96.625 52.8126 96.5718 53.0532 96.5718 53.3354ZM103.619 56.6076C103.12 56.6076 102.684 56.4931 102.311 56.264C101.939 56.035 101.649 55.7146 101.444 55.3029C101.238 54.8911 101.135 54.4099 101.135 53.8594C101.135 53.3065 101.238 52.823 101.444 52.409C101.649 51.9949 101.939 51.6733 102.311 51.4443C102.684 51.2153 103.12 51.1008 103.619 51.1008C104.119 51.1008 104.555 51.2153 104.927 51.4443C105.3 51.6733 105.589 51.9949 105.795 52.409C106.001 52.823 106.104 53.3065 106.104 53.8594C106.104 54.4099 106.001 54.8911 105.795 55.3029C105.589 55.7146 105.3 56.035 104.927 56.264C104.555 56.4931 104.119 56.6076 103.619 56.6076ZM103.623 55.7366C103.947 55.7366 104.215 55.651 104.428 55.4798C104.641 55.3087 104.798 55.0808 104.9 54.7963C105.004 54.5117 105.056 54.1983 105.056 53.8559C105.056 53.5159 105.004 53.2036 104.9 52.919C104.798 52.6322 104.641 52.402 104.428 52.2285C104.215 52.055 103.947 51.9683 103.623 51.9683C103.297 51.9683 103.026 52.055 102.811 52.2285C102.598 52.402 102.439 52.6322 102.335 52.919C102.234 53.2036 102.183 53.5159 102.183 53.8559C102.183 54.1983 102.234 54.5117 102.335 54.7963C102.439 55.0808 102.598 55.3087 102.811 55.4798C103.026 55.651 103.297 55.7366 103.623 55.7366ZM111.64 51.1702L109.707 56.5H108.597L106.661 51.1702H107.774L109.124 55.2716H109.18L110.526 51.1702H111.64ZM114.013 56.618C113.676 56.618 113.37 56.5555 113.097 56.4306C112.824 56.3034 112.608 56.1195 112.448 55.8789C112.291 55.6383 112.213 55.3434 112.213 54.9941C112.213 54.6933 112.27 54.4458 112.386 54.2515C112.502 54.0572 112.658 53.9033 112.854 53.79C113.051 53.6766 113.271 53.591 113.514 53.5332C113.757 53.4754 114.004 53.4314 114.256 53.4014C114.576 53.3643 114.835 53.3343 115.034 53.3111C115.233 53.2857 115.377 53.2452 115.467 53.1897C115.558 53.1342 115.603 53.044 115.603 52.919V52.8947C115.603 52.5917 115.517 52.3569 115.346 52.1903C115.177 52.0238 114.925 51.9405 114.589 51.9405C114.24 51.9405 113.965 52.018 113.764 52.173C113.565 52.3257 113.427 52.4957 113.351 52.6831L112.376 52.461C112.491 52.1371 112.66 51.8757 112.882 51.6768C113.107 51.4755 113.365 51.3298 113.656 51.2396C113.947 51.1471 114.254 51.1008 114.576 51.1008C114.788 51.1008 115.014 51.1262 115.252 51.1771C115.493 51.2257 115.717 51.3159 115.925 51.4478C116.136 51.5796 116.308 51.7682 116.442 52.0134C116.577 52.2563 116.644 52.572 116.644 52.9607V56.5H115.63V55.7713H115.589C115.522 55.9055 115.421 56.0373 115.287 56.1669C115.153 56.2964 114.98 56.404 114.77 56.4896C114.559 56.5752 114.307 56.618 114.013 56.618ZM114.239 55.7852C114.526 55.7852 114.771 55.7285 114.975 55.6152C115.18 55.5018 115.337 55.3538 115.443 55.171C115.552 54.986 115.606 54.7882 115.606 54.5777V53.8906C115.569 53.9276 115.497 53.9623 115.391 53.9947C115.287 54.0248 115.168 54.0514 115.034 54.0745C114.899 54.0953 114.769 54.115 114.641 54.1335C114.514 54.1497 114.408 54.1636 114.322 54.1751C114.121 54.2006 113.937 54.2434 113.771 54.3035C113.606 54.3637 113.474 54.4504 113.375 54.5638C113.278 54.6748 113.229 54.8229 113.229 55.0079C113.229 55.2647 113.324 55.459 113.514 55.5909C113.703 55.7204 113.945 55.7852 114.239 55.7852ZM120.513 51.1702V52.003H117.602V51.1702H120.513ZM118.383 49.8933H119.42V54.9351C119.42 55.1363 119.45 55.2878 119.511 55.3896C119.571 55.4891 119.648 55.5573 119.743 55.5943C119.84 55.629 119.946 55.6464 120.059 55.6464C120.142 55.6464 120.215 55.6406 120.277 55.629C120.34 55.6175 120.389 55.6082 120.423 55.6013L120.611 56.4584C120.55 56.4815 120.465 56.5046 120.354 56.5278C120.243 56.5532 120.104 56.5671 119.937 56.5694C119.664 56.574 119.41 56.5254 119.174 56.4237C118.938 56.3219 118.747 56.1646 118.602 55.9518C118.456 55.7389 118.383 55.4717 118.383 55.1502V49.8933ZM121.661 56.5V51.1702H122.699V56.5H121.661ZM122.185 50.3478C122.005 50.3478 121.85 50.2877 121.72 50.1674C121.593 50.0448 121.529 49.899 121.529 49.7302C121.529 49.559 121.593 49.4133 121.72 49.293C121.85 49.1704 122.005 49.1091 122.185 49.1091C122.366 49.1091 122.519 49.1704 122.647 49.293C122.776 49.4133 122.841 49.559 122.841 49.7302C122.841 49.899 122.776 50.0448 122.647 50.1674C122.519 50.2877 122.366 50.3478 122.185 50.3478ZM125.132 53.3354V56.5H124.094V51.1702H125.09V52.0377H125.156C125.279 51.7555 125.471 51.5288 125.732 51.3576C125.996 51.1864 126.328 51.1008 126.728 51.1008C127.091 51.1008 127.409 51.1771 127.682 51.3298C127.955 51.4802 128.167 51.7046 128.317 52.003C128.468 52.3014 128.543 52.6704 128.543 53.1099V56.5H127.505V53.2348C127.505 52.8485 127.405 52.5466 127.203 52.3291C127.002 52.1094 126.726 51.9995 126.374 51.9995C126.134 51.9995 125.92 52.0516 125.732 52.1557C125.547 52.2597 125.4 52.4124 125.292 52.6137C125.185 52.8126 125.132 53.0532 125.132 53.3354ZM132.169 58.6097C131.746 58.6097 131.381 58.5542 131.076 58.4432C130.773 58.3321 130.525 58.1852 130.333 58.0025C130.141 57.8197 129.998 57.6196 129.903 57.4022L130.795 57.0344C130.857 57.1362 130.941 57.2437 131.045 57.3571C131.151 57.4727 131.295 57.5711 131.475 57.652C131.658 57.733 131.892 57.7735 132.179 57.7735C132.573 57.7735 132.898 57.6775 133.154 57.4855C133.411 57.2958 133.54 56.9927 133.54 56.5763V55.5284H133.474C133.411 55.6418 133.321 55.7678 133.203 55.9066C133.087 56.0454 132.928 56.1657 132.724 56.2675C132.521 56.3693 132.256 56.4202 131.93 56.4202C131.508 56.4202 131.129 56.3219 130.791 56.1252C130.456 55.9263 130.19 55.6337 129.993 55.2474C129.799 54.8587 129.702 54.381 129.702 53.8143C129.702 53.2475 129.798 52.7617 129.99 52.3569C130.184 51.9521 130.45 51.6421 130.788 51.427C131.126 51.2095 131.508 51.1008 131.936 51.1008C132.267 51.1008 132.534 51.1563 132.738 51.2673C132.942 51.3761 133.1 51.5033 133.213 51.649C133.329 51.7948 133.418 51.9232 133.481 52.0342H133.557V51.1702H134.574V56.618C134.574 57.076 134.467 57.4519 134.254 57.7457C134.042 58.0395 133.754 58.2569 133.39 58.3981C133.029 58.5392 132.622 58.6097 132.169 58.6097ZM132.159 55.5596C132.457 55.5596 132.709 55.4903 132.915 55.3515C133.123 55.2103 133.28 55.0091 133.387 54.7477C133.496 54.484 133.55 54.1682 133.55 53.8004C133.55 53.4418 133.497 53.1261 133.39 52.8531C133.284 52.5801 133.128 52.3673 132.922 52.2146C132.716 52.0596 132.462 51.9822 132.159 51.9822C131.846 51.9822 131.586 52.0631 131.378 52.225C131.17 52.3847 131.012 52.6021 130.906 52.8774C130.802 53.1527 130.75 53.4603 130.75 53.8004C130.75 54.1497 130.803 54.4562 130.909 54.7199C131.016 54.9836 131.173 55.1895 131.381 55.3376C131.592 55.4856 131.851 55.5596 132.159 55.5596ZM138.284 50.3166V49.3936H143.784V50.3166H141.566V56.5H140.498V50.3166H138.284ZM146.388 56.6076C145.888 56.6076 145.452 56.4931 145.08 56.264C144.707 56.035 144.418 55.7146 144.212 55.3029C144.006 54.8911 143.903 54.4099 143.903 53.8594C143.903 53.3065 144.006 52.823 144.212 52.409C144.418 51.9949 144.707 51.6733 145.08 51.4443C145.452 51.2153 145.888 51.1008 146.388 51.1008C146.887 51.1008 147.324 51.2153 147.696 51.4443C148.068 51.6733 148.358 51.9949 148.563 52.409C148.769 52.823 148.872 53.3065 148.872 53.8594C148.872 54.4099 148.769 54.8911 148.563 55.3029C148.358 55.7146 148.068 56.035 147.696 56.264C147.324 56.4931 146.887 56.6076 146.388 56.6076ZM146.391 55.7366C146.715 55.7366 146.983 55.651 147.196 55.4798C147.409 55.3087 147.566 55.0808 147.668 54.7963C147.772 54.5117 147.824 54.1983 147.824 53.8559C147.824 53.5159 147.772 53.2036 147.668 52.919C147.566 52.6322 147.409 52.402 147.196 52.2285C146.983 52.055 146.715 51.9683 146.391 51.9683C146.065 51.9683 145.794 52.055 145.579 52.2285C145.367 52.402 145.208 52.6322 145.104 52.919C145.002 53.2036 144.951 53.5159 144.951 53.8559C144.951 54.1983 145.002 54.5117 145.104 54.7963C145.208 55.0808 145.367 55.3087 145.579 55.4798C145.794 55.651 146.065 55.7366 146.391 55.7366ZM152.026 56.6041C151.595 56.6041 151.211 56.4942 150.874 56.2745C150.538 56.0524 150.274 55.7366 150.082 55.3272C149.893 54.9154 149.798 54.4215 149.798 53.8455C149.798 53.2695 149.894 52.7768 150.086 52.3673C150.28 51.9579 150.546 51.6444 150.884 51.427C151.222 51.2095 151.605 51.1008 152.033 51.1008C152.363 51.1008 152.629 51.1563 152.831 51.2673C153.034 51.3761 153.191 51.5033 153.303 51.649C153.416 51.7948 153.504 51.9232 153.566 52.0342H153.629V49.3936H154.666V56.5H153.653V55.6707H153.566C153.504 55.784 153.414 55.9136 153.296 56.0593C153.18 56.2051 153.02 56.3323 152.817 56.441C152.613 56.5497 152.349 56.6041 152.026 56.6041ZM152.255 55.7193C152.553 55.7193 152.805 55.6406 153.011 55.4833C153.219 55.3237 153.377 55.1028 153.483 54.8206C153.592 54.5383 153.646 54.2098 153.646 53.8351C153.646 53.465 153.593 53.1411 153.486 52.8635C153.38 52.5859 153.224 52.3696 153.018 52.2146C152.812 52.0596 152.558 51.9822 152.255 51.9822C151.942 51.9822 151.682 52.0631 151.474 52.225C151.266 52.387 151.108 52.6079 151.002 52.8878C150.898 53.1677 150.846 53.4835 150.846 53.8351C150.846 54.1913 150.899 54.5117 151.005 54.7963C151.112 55.0808 151.269 55.3063 151.477 55.4729C151.688 55.6371 151.947 55.7193 152.255 55.7193ZM157.698 56.618C157.36 56.618 157.055 56.5555 156.782 56.4306C156.509 56.3034 156.293 56.1195 156.133 55.8789C155.976 55.6383 155.897 55.3434 155.897 54.9941C155.897 54.6933 155.955 54.4458 156.071 54.2515C156.186 54.0572 156.342 53.9033 156.539 53.79C156.736 53.6766 156.955 53.591 157.198 53.5332C157.441 53.4754 157.689 53.4314 157.941 53.4014C158.26 53.3643 158.519 53.3343 158.718 53.3111C158.917 53.2857 159.062 53.2452 159.152 53.1897C159.242 53.1342 159.287 53.044 159.287 52.919V52.8947C159.287 52.5917 159.202 52.3569 159.031 52.1903C158.862 52.0238 158.609 51.9405 158.274 51.9405C157.925 51.9405 157.649 52.018 157.448 52.173C157.249 52.3257 157.112 52.4957 157.035 52.6831L156.06 52.461C156.176 52.1371 156.345 51.8757 156.567 51.6768C156.791 51.4755 157.049 51.3298 157.341 51.2396C157.632 51.1471 157.939 51.1008 158.26 51.1008C158.473 51.1008 158.699 51.1262 158.937 51.1771C159.177 51.2257 159.402 51.3159 159.61 51.4478C159.82 51.5796 159.993 51.7682 160.127 52.0134C160.261 52.2563 160.328 52.572 160.328 52.9607V56.5H159.315V55.7713H159.273C159.206 55.9055 159.106 56.0373 158.972 56.1669C158.837 56.2964 158.665 56.404 158.455 56.4896C158.244 56.5752 157.992 56.618 157.698 56.618ZM157.924 55.7852C158.21 55.7852 158.456 55.7285 158.659 55.6152C158.865 55.5018 159.021 55.3538 159.128 55.171C159.236 54.986 159.291 54.7882 159.291 54.5777V53.8906C159.254 53.9276 159.182 53.9623 159.076 53.9947C158.972 54.0248 158.852 54.0514 158.718 54.0745C158.584 54.0953 158.453 54.115 158.326 54.1335C158.199 54.1497 158.092 54.1636 158.007 54.1751C157.806 54.2006 157.622 54.2434 157.455 54.3035C157.291 54.3637 157.159 54.4504 157.06 54.5638C156.962 54.6748 156.914 54.8229 156.914 55.0079C156.914 55.2647 157.009 55.459 157.198 55.5909C157.388 55.7204 157.63 55.7852 157.924 55.7852ZM162.175 58.4987C162.02 58.4987 161.879 58.486 161.752 58.4605C161.625 58.4374 161.53 58.4119 161.467 58.3842L161.717 57.534C161.907 57.5849 162.076 57.6069 162.224 57.6C162.372 57.593 162.502 57.5375 162.616 57.4334C162.731 57.3293 162.833 57.1593 162.921 56.9233L163.05 56.5694L161.099 51.1702H162.21L163.56 55.3063H163.615L164.965 51.1702H166.079L163.882 57.2113C163.781 57.4889 163.651 57.7237 163.494 57.9157C163.336 58.11 163.149 58.2558 162.932 58.3529C162.714 58.4501 162.462 58.4987 162.175 58.4987ZM168.07 55.5284L168.018 55.9066C167.983 56.1842 167.924 56.4734 167.841 56.7741C167.76 57.0772 167.675 57.3582 167.587 57.6173C167.502 57.8764 167.431 58.0823 167.376 58.235H166.64C166.67 58.0915 166.712 57.8972 166.765 57.652C166.818 57.4091 166.87 57.1373 166.921 56.8366C166.972 56.5359 167.01 56.2293 167.036 55.9171L167.07 55.5284H168.07Z" fill="#8F255A"/>
<path d="M91.0199 63.2604C90.9829 62.9319 90.8302 62.6775 90.5619 62.497C90.2936 62.3143 89.9558 62.2229 89.5487 62.2229C89.2572 62.2229 89.0051 62.2692 88.7922 62.3617C88.5794 62.4519 88.414 62.5768 88.296 62.7365C88.1804 62.8938 88.1225 63.073 88.1225 63.2743C88.1225 63.4432 88.1619 63.5889 88.2405 63.7115C88.3215 63.8341 88.4267 63.937 88.5563 64.0203C88.6881 64.1013 88.8292 64.1695 88.9796 64.225C89.13 64.2783 89.2746 64.3222 89.4133 64.3569L90.1073 64.5373C90.334 64.5929 90.5665 64.668 90.8048 64.7629C91.0431 64.8577 91.264 64.9826 91.4675 65.1376C91.6711 65.2926 91.8354 65.4846 91.9603 65.7136C92.0875 65.9427 92.1511 66.2168 92.1511 66.536C92.1511 66.9385 92.047 67.2959 91.8388 67.6082C91.6329 67.9205 91.3334 68.1669 90.9401 68.3473C90.5492 68.5278 90.0761 68.618 89.5209 68.618C88.9889 68.618 88.5285 68.5335 88.1399 68.3647C87.7513 68.1958 87.4471 67.9564 87.2273 67.6464C87.0075 67.3341 86.8861 66.964 86.863 66.536H87.9386C87.9594 66.7928 88.0427 67.0068 88.1885 67.178C88.3365 67.3468 88.525 67.4729 88.7541 67.5562C88.9854 67.6371 89.2387 67.6776 89.514 67.6776C89.817 67.6776 90.0865 67.6302 90.3225 67.5354C90.5607 67.4382 90.7481 67.304 90.8846 67.1328C91.0211 66.9594 91.0893 66.7569 91.0893 66.5256C91.0893 66.3151 91.0292 66.1428 90.9089 66.0086C90.7909 65.8744 90.6301 65.7634 90.4266 65.6755C90.2253 65.5876 89.9975 65.5101 89.743 65.443L88.9033 65.214C88.3342 65.059 87.8831 64.8311 87.55 64.5304C87.2192 64.2297 87.0538 63.8318 87.0538 63.3367C87.0538 62.9273 87.1648 62.5699 87.3869 62.2645C87.609 61.9592 87.9097 61.7221 88.2891 61.5532C88.6685 61.382 89.0964 61.2964 89.573 61.2964C90.0541 61.2964 90.4786 61.3809 90.8464 61.5497C91.2166 61.7186 91.508 61.9511 91.7209 62.2472C91.9337 62.541 92.0447 62.8787 92.054 63.2604H91.0199ZM94.3866 65.3354V68.5H93.3491V61.3936H94.3727V64.0377H94.4387C94.5636 63.7508 94.7544 63.523 95.0112 63.3541C95.268 63.1852 95.6034 63.1008 96.0175 63.1008C96.383 63.1008 96.7022 63.176 96.9752 63.3263C97.2505 63.4767 97.4633 63.7011 97.6137 63.9995C97.7663 64.2956 97.8427 64.6657 97.8427 65.1099V68.5H96.8052V65.2348C96.8052 64.8439 96.7045 64.5408 96.5033 64.3257C96.302 64.1082 96.0221 63.9995 95.6636 63.9995C95.4183 63.9995 95.1986 64.0516 95.0043 64.1557C94.8123 64.2597 94.6607 64.4124 94.5497 64.6137C94.441 64.8126 94.3866 65.0532 94.3866 65.3354ZM100.778 68.618C100.44 68.618 100.135 68.5555 99.8622 68.4306C99.5892 68.3034 99.3729 68.1195 99.2133 67.8789C99.056 67.6383 98.9773 67.3434 98.9773 66.9941C98.9773 66.6933 99.0352 66.4458 99.1508 66.2515C99.2665 66.0572 99.4226 65.9033 99.6193 65.79C99.8159 65.6766 100.036 65.591 100.279 65.5332C100.521 65.4754 100.769 65.4314 101.021 65.4014C101.34 65.3643 101.599 65.3343 101.798 65.3111C101.997 65.2857 102.142 65.2452 102.232 65.1897C102.322 65.1342 102.367 65.044 102.367 64.919V64.8947C102.367 64.5917 102.282 64.3569 102.111 64.1903C101.942 64.0238 101.69 63.9405 101.354 63.9405C101.005 63.9405 100.73 64.018 100.528 64.173C100.329 64.3257 100.192 64.4957 100.115 64.6831L99.1404 64.461C99.2561 64.1371 99.425 63.8757 99.647 63.6768C99.8714 63.4755 100.129 63.3298 100.421 63.2396C100.712 63.1471 101.019 63.1008 101.34 63.1008C101.553 63.1008 101.779 63.1262 102.017 63.1771C102.258 63.2257 102.482 63.3159 102.69 63.4478C102.901 63.5796 103.073 63.7682 103.207 64.0134C103.341 64.2563 103.408 64.572 103.408 64.9607V68.5H102.395V67.7713H102.354C102.286 67.9055 102.186 68.0373 102.052 68.1669C101.918 68.2964 101.745 68.404 101.535 68.4896C101.324 68.5752 101.072 68.618 100.778 68.618ZM101.004 67.7852C101.291 67.7852 101.536 67.7285 101.739 67.6152C101.945 67.5018 102.101 67.3538 102.208 67.171C102.317 66.986 102.371 66.7882 102.371 66.5777V65.8906C102.334 65.9276 102.262 65.9623 102.156 65.9947C102.052 66.0248 101.933 66.0514 101.798 66.0745C101.664 66.0953 101.534 66.115 101.406 66.1335C101.279 66.1497 101.173 66.1636 101.087 66.1751C100.886 66.2006 100.702 66.2434 100.535 66.3035C100.371 66.3637 100.239 66.4504 100.14 66.5638C100.043 66.6748 99.994 66.8229 99.994 67.0079C99.994 67.2647 100.089 67.459 100.279 67.5909C100.468 67.7204 100.71 67.7852 101.004 67.7852ZM104.79 70.4987V63.1702H105.804V64.0342H105.89C105.95 63.9232 106.037 63.7948 106.151 63.649C106.264 63.5033 106.421 63.3761 106.622 63.2673C106.824 63.1563 107.09 63.1008 107.421 63.1008C107.851 63.1008 108.235 63.2095 108.573 63.427C108.91 63.6444 109.175 63.9579 109.367 64.3673C109.561 64.7768 109.659 65.2695 109.659 65.8455C109.659 66.4215 109.563 66.9154 109.371 67.3272C109.179 67.7366 108.915 68.0524 108.579 68.2745C108.244 68.4942 107.861 68.6041 107.431 68.6041C107.107 68.6041 106.842 68.5497 106.636 68.441C106.433 68.3323 106.273 68.2051 106.157 68.0593C106.042 67.9136 105.953 67.784 105.89 67.6707H105.828V70.4987H104.79ZM105.807 65.8351C105.807 66.2098 105.861 66.5383 105.97 66.8206C106.079 67.1028 106.236 67.3237 106.442 67.4833C106.648 67.6406 106.9 67.7193 107.198 67.7193C107.508 67.7193 107.768 67.6371 107.976 67.4729C108.184 67.3063 108.341 67.0808 108.448 66.7963C108.556 66.5117 108.611 66.1913 108.611 65.8351C108.611 65.4835 108.558 65.1677 108.451 64.8878C108.347 64.6079 108.19 64.387 107.979 64.225C107.771 64.0631 107.511 63.9822 107.198 63.9822C106.898 63.9822 106.643 64.0596 106.435 64.2146C106.229 64.3696 106.073 64.5859 105.967 64.8635C105.86 65.1411 105.807 65.465 105.807 65.8351ZM110.821 68.5V63.1702H111.859V68.5H110.821ZM111.345 62.3478C111.165 62.3478 111.01 62.2877 110.88 62.1674C110.753 62.0448 110.689 61.899 110.689 61.7302C110.689 61.559 110.753 61.4133 110.88 61.293C111.01 61.1704 111.165 61.1091 111.345 61.1091C111.525 61.1091 111.679 61.1704 111.807 61.293C111.936 61.4133 112.001 61.559 112.001 61.7302C112.001 61.899 111.936 62.0448 111.807 62.1674C111.679 62.2877 111.525 62.3478 111.345 62.3478ZM114.292 65.3354V68.5H113.254V63.1702H114.25V64.0377H114.316C114.439 63.7555 114.631 63.5288 114.892 63.3576C115.156 63.1864 115.488 63.1008 115.888 63.1008C116.251 63.1008 116.569 63.1771 116.842 63.3298C117.115 63.4802 117.327 63.7046 117.477 64.003C117.628 64.3014 117.703 64.6704 117.703 65.1099V68.5H116.665V65.2348C116.665 64.8485 116.565 64.5466 116.363 64.3291C116.162 64.1094 115.886 63.9995 115.534 63.9995C115.294 63.9995 115.08 64.0516 114.892 64.1557C114.707 64.2597 114.56 64.4124 114.451 64.6137C114.345 64.8126 114.292 65.0532 114.292 65.3354ZM121.329 70.6097C120.906 70.6097 120.541 70.5542 120.236 70.4432C119.933 70.3321 119.685 70.1852 119.493 70.0025C119.301 69.8197 119.158 69.6196 119.063 69.4022L119.955 69.0344C120.017 69.1362 120.101 69.2437 120.205 69.3571C120.311 69.4727 120.454 69.5711 120.635 69.652C120.818 69.733 121.052 69.7735 121.339 69.7735C121.733 69.7735 122.058 69.6775 122.314 69.4855C122.571 69.2958 122.699 68.9927 122.699 68.5763V67.5284H122.634C122.571 67.6418 122.481 67.7678 122.363 67.9066C122.247 68.0454 122.088 68.1657 121.884 68.2675C121.68 68.3693 121.416 68.4202 121.089 68.4202C120.668 68.4202 120.289 68.3219 119.951 68.1252C119.616 67.9263 119.35 67.6337 119.153 67.2474C118.959 66.8587 118.862 66.381 118.862 65.8143C118.862 65.2475 118.958 64.7617 119.15 64.3569C119.344 63.9521 119.61 63.6421 119.948 63.427C120.286 63.2095 120.668 63.1008 121.096 63.1008C121.427 63.1008 121.694 63.1563 121.898 63.2673C122.102 63.3761 122.26 63.5033 122.373 63.649C122.489 63.7948 122.578 63.9232 122.641 64.0342H122.717V63.1702H123.734V68.618C123.734 69.076 123.627 69.4519 123.414 69.7457C123.201 70.0395 122.913 70.2569 122.55 70.3981C122.189 70.5392 121.782 70.6097 121.329 70.6097ZM121.318 67.5596C121.617 67.5596 121.869 67.4903 122.075 67.3515C122.283 67.2103 122.44 67.0091 122.547 66.7477C122.656 66.484 122.71 66.1682 122.71 65.8004C122.71 65.4418 122.657 65.1261 122.55 64.8531C122.444 64.5801 122.288 64.3673 122.082 64.2146C121.876 64.0596 121.622 63.9822 121.318 63.9822C121.006 63.9822 120.746 64.0631 120.538 64.225C120.33 64.3847 120.172 64.6021 120.066 64.8774C119.962 65.1527 119.91 65.4603 119.91 65.8004C119.91 66.1497 119.963 66.4562 120.069 66.7199C120.176 66.9836 120.333 67.1895 120.541 67.3376C120.752 67.4856 121.011 67.5596 121.318 67.5596ZM127.444 62.3166V61.3936H132.944V62.3166H130.726V68.5H129.658V62.3166H127.444ZM135.548 68.6076C135.048 68.6076 134.612 68.4931 134.24 68.264C133.867 68.035 133.578 67.7146 133.372 67.3029C133.166 66.8911 133.063 66.4099 133.063 65.8594C133.063 65.3065 133.166 64.823 133.372 64.409C133.578 63.9949 133.867 63.6733 134.24 63.4443C134.612 63.2153 135.048 63.1008 135.548 63.1008C136.047 63.1008 136.483 63.2153 136.856 63.4443C137.228 63.6733 137.518 63.9949 137.723 64.409C137.929 64.823 138.032 65.3065 138.032 65.8594C138.032 66.4099 137.929 66.8911 137.723 67.3029C137.518 67.7146 137.228 68.035 136.856 68.264C136.483 68.4931 136.047 68.6076 135.548 68.6076ZM135.551 67.7366C135.875 67.7366 136.143 67.651 136.356 67.4798C136.569 67.3087 136.726 67.0808 136.828 66.7963C136.932 66.5117 136.984 66.1983 136.984 65.8559C136.984 65.5159 136.932 65.2036 136.828 64.919C136.726 64.6322 136.569 64.402 136.356 64.2285C136.143 64.055 135.875 63.9683 135.551 63.9683C135.225 63.9683 134.954 64.055 134.739 64.2285C134.526 64.402 134.368 64.6322 134.264 64.919C134.162 65.2036 134.111 65.5159 134.111 65.8559C134.111 66.1983 134.162 66.5117 134.264 66.7963C134.368 67.0808 134.526 67.3087 134.739 67.4798C134.954 67.651 135.225 67.7366 135.551 67.7366ZM139.19 68.5V63.1702H140.186V64.0377H140.252C140.363 63.7439 140.545 63.5149 140.797 63.3506C141.049 63.1841 141.351 63.1008 141.703 63.1008C142.059 63.1008 142.357 63.1841 142.598 63.3506C142.841 63.5172 143.02 63.7462 143.136 64.0377H143.191C143.318 63.7531 143.521 63.5264 143.798 63.3576C144.076 63.1864 144.407 63.1008 144.791 63.1008C145.274 63.1008 145.669 63.2523 145.974 63.5554C146.282 63.8584 146.436 64.3153 146.436 64.926V68.5H145.398V65.0231C145.398 64.6623 145.3 64.4009 145.103 64.2389C144.906 64.077 144.672 63.996 144.399 63.996C144.061 63.996 143.798 64.1001 143.611 64.3083C143.424 64.5142 143.33 64.7791 143.33 65.1029V68.5H142.296V64.9572C142.296 64.668 142.206 64.4356 142.025 64.2597C141.845 64.0839 141.61 63.996 141.321 63.996C141.124 63.996 140.943 64.0481 140.776 64.1522C140.612 64.254 140.479 64.3962 140.377 64.579C140.278 64.7617 140.228 64.9734 140.228 65.214V68.5H139.19ZM150.071 68.6076C149.571 68.6076 149.135 68.4931 148.763 68.264C148.391 68.035 148.101 67.7146 147.896 67.3029C147.69 66.8911 147.587 66.4099 147.587 65.8594C147.587 65.3065 147.69 64.823 147.896 64.409C148.101 63.9949 148.391 63.6733 148.763 63.4443C149.135 63.2153 149.571 63.1008 150.071 63.1008C150.571 63.1008 151.007 63.2153 151.379 63.4443C151.752 63.6733 152.041 63.9949 152.247 64.409C152.453 64.823 152.556 65.3065 152.556 65.8594C152.556 66.4099 152.453 66.8911 152.247 67.3029C152.041 67.7146 151.752 68.035 151.379 68.264C151.007 68.4931 150.571 68.6076 150.071 68.6076ZM150.075 67.7366C150.398 67.7366 150.667 67.651 150.88 67.4798C151.092 67.3087 151.25 67.0808 151.352 66.7963C151.456 66.5117 151.508 66.1983 151.508 65.8559C151.508 65.5159 151.456 65.2036 151.352 64.919C151.25 64.6322 151.092 64.402 150.88 64.2285C150.667 64.055 150.398 63.9683 150.075 63.9683C149.748 63.9683 149.478 64.055 149.263 64.2285C149.05 64.402 148.891 64.6322 148.787 64.919C148.685 65.2036 148.635 65.5159 148.635 65.8559C148.635 66.1983 148.685 66.5117 148.787 66.7963C148.891 67.0808 149.05 67.3087 149.263 67.4798C149.478 67.651 149.748 67.7366 150.075 67.7366ZM153.714 68.5V63.1702H154.717V64.0169H154.772C154.869 63.73 155.04 63.5045 155.286 63.3402C155.533 63.1737 155.813 63.0904 156.125 63.0904C156.19 63.0904 156.266 63.0927 156.354 63.0973C156.445 63.1019 156.515 63.1077 156.566 63.1147V64.1071C156.524 64.0955 156.45 64.0828 156.344 64.0689C156.238 64.0527 156.131 64.0446 156.025 64.0446C155.779 64.0446 155.561 64.0967 155.369 64.2008C155.179 64.3025 155.029 64.4448 154.918 64.6276C154.807 64.808 154.751 65.0139 154.751 65.2452V68.5H153.714ZM157.464 68.5V63.1702H158.467V64.0169H158.522C158.619 63.73 158.791 63.5045 159.036 63.3402C159.283 63.1737 159.563 63.0904 159.875 63.0904C159.94 63.0904 160.017 63.0927 160.104 63.0973C160.195 63.1019 160.265 63.1077 160.316 63.1147V64.1071C160.274 64.0955 160.2 64.0828 160.094 64.0689C159.988 64.0527 159.881 64.0446 159.775 64.0446C159.53 64.0446 159.311 64.0967 159.119 64.2008C158.929 64.3025 158.779 64.4448 158.668 64.6276C158.557 64.808 158.501 65.0139 158.501 65.2452V68.5H157.464ZM163.268 68.6076C162.768 68.6076 162.332 68.4931 161.96 68.264C161.588 68.035 161.298 67.7146 161.093 67.3029C160.887 66.8911 160.784 66.4099 160.784 65.8594C160.784 65.3065 160.887 64.823 161.093 64.409C161.298 63.9949 161.588 63.6733 161.96 63.4443C162.332 63.2153 162.768 63.1008 163.268 63.1008C163.768 63.1008 164.204 63.2153 164.576 63.4443C164.949 63.6733 165.238 63.9949 165.444 64.409C165.65 64.823 165.753 65.3065 165.753 65.8594C165.753 66.4099 165.65 66.8911 165.444 67.3029C165.238 67.7146 164.949 68.035 164.576 68.264C164.204 68.4931 163.768 68.6076 163.268 68.6076ZM163.272 67.7366C163.595 67.7366 163.864 67.651 164.077 67.4798C164.289 67.3087 164.447 67.0808 164.549 66.7963C164.653 66.5117 164.705 66.1983 164.705 65.8559C164.705 65.5159 164.653 65.2036 164.549 64.919C164.447 64.6322 164.289 64.402 164.077 64.2285C163.864 64.055 163.595 63.9683 163.272 63.9683C162.945 63.9683 162.675 64.055 162.46 64.2285C162.247 64.402 162.088 64.6322 161.984 64.919C161.883 65.2036 161.832 65.5159 161.832 65.8559C161.832 66.1983 161.883 66.5117 161.984 66.7963C162.088 67.0808 162.247 67.3087 162.46 67.4798C162.675 67.651 162.945 67.7366 163.272 67.7366ZM167.904 68.5L166.336 63.1702H167.408L168.452 67.0843H168.504L169.552 63.1702H170.624L171.665 67.0669H171.717L172.755 63.1702H173.827L172.262 68.5H171.204L170.121 64.6519H170.041L168.959 68.5H167.904ZM176.12 61.3936L176.03 66.4562H175.069L174.978 61.3936H176.12ZM175.551 68.5659C175.359 68.5659 175.195 68.4988 175.058 68.3647C174.922 68.2282 174.855 68.0639 174.857 67.8719C174.855 67.6823 174.922 67.5203 175.058 67.3862C175.195 67.2497 175.359 67.1814 175.551 67.1814C175.738 67.1814 175.9 67.2497 176.037 67.3862C176.173 67.5203 176.243 67.6823 176.245 67.8719C176.243 67.9992 176.209 68.116 176.144 68.2224C176.082 68.3265 175.998 68.4098 175.894 68.4722C175.79 68.5347 175.676 68.5659 175.551 68.5659Z" fill="#8F255A"/>
<defs>
<linearGradient id="paint0_linear_7980_5848" x1="41.3724" y1="32.2563" x2="41.3724" y2="47.5315" gradientUnits="userSpaceOnUse">
<stop stop-color="#4B0082"/>
<stop offset="1" stop-color="#7C00D6"/>
</linearGradient>
<linearGradient id="paint1_linear_7980_5848" x1="47.5714" y1="34.167" x2="47.5714" y2="45.6249" gradientUnits="userSpaceOnUse">
<stop stop-color="#4B0082"/>
<stop offset="1" stop-color="#7C00D6"/>
</linearGradient>
<linearGradient id="paint2_linear_7980_5848" x1="21.9212" y1="33.7041" x2="21.9212" y2="36.6608" gradientUnits="userSpaceOnUse">
<stop stop-color="#F5AC24"/>
<stop offset="1" stop-color="#FFF6E6"/>
</linearGradient>
<linearGradient id="paint3_linear_7980_5848" x1="22.1825" y1="38.5107" x2="22.1825" y2="40.8" gradientUnits="userSpaceOnUse">
<stop stop-color="#F5AC24"/>
<stop offset="1" stop-color="#FFF6E6"/>
</linearGradient>
<linearGradient id="paint4_linear_7980_5848" x1="24.1401" y1="42.7534" x2="24.1401" y2="44.6139" gradientUnits="userSpaceOnUse">
<stop stop-color="#F5AC24"/>
<stop offset="1" stop-color="#FFF6E6"/>
</linearGradient>
</defs>
</svg>
